<svg width="474" height="846" viewBox="0 0 474 846" fill="none" xmlns="http://www.w3.org/2000/svg">
<rect x="1.5" y="131.5" width="471" height="713" rx="48.5" fill="#CFEEEC" stroke="#141B34" stroke-width="3"/>
<path d="M201 612H279C289.493 612 298 620.507 298 631V647C298 657.493 289.493 666 279 666H201C190.507 666 182 657.493 182 647V631C182 620.507 190.507 612 201 612Z" stroke="#424A68" stroke-width="2"/>
<rect x="339.569" y="601.835" width="56.0333" height="58.1799" rx="28.0166" fill="#424A68"/>
<path d="M363.648 664.339C379.174 666.415 393.683 654.056 395.864 636.474C396.95 627.714 394.644 620.25 390.157 614.717C385.663 609.176 378.932 605.514 371.075 604.463C363.016 603.385 355.753 603.305 350.263 605.603C347.542 606.742 345.258 608.464 343.515 610.956C341.768 613.455 340.53 616.777 339.986 621.161C338.895 629.955 340.936 640.287 345.244 648.677C349.565 657.093 356.032 663.32 363.648 664.339Z" stroke="#576289" stroke-width="2"/>
<path d="M349.608 658.372C337.094 648.55 335.092 629.175 345.369 615.06C350.492 608.024 357.164 604.371 364.098 603.681C371.045 602.991 378.328 605.268 384.656 610.235C391.14 615.324 396.386 620.551 398.761 626.19C399.938 628.984 400.406 631.874 399.972 634.916C399.536 637.965 398.183 641.232 395.618 644.755C390.474 651.82 382.056 657.712 373.326 660.572C364.574 663.439 355.747 663.191 349.608 658.372Z" stroke="#576289" stroke-width="2"/>
<path d="M394.039 623.737C397.73 640.286 387.789 656.753 371.917 660.57C363.994 662.476 356.863 660.69 351.239 656.384C345.598 652.065 341.431 645.175 339.571 636.835C337.672 628.324 336.78 620.546 338.305 614.451C339.062 611.429 340.407 608.846 342.505 606.785C344.604 604.723 347.512 603.129 351.481 602.174C359.45 600.258 369.207 601.524 377.444 605.383C385.687 609.244 392.226 615.61 394.039 623.737Z" stroke="#576289" stroke-width="2"/>
<path d="M359.2 663.652C343.966 659.219 335.216 641.798 339.851 624.625C342.163 616.06 347.135 610.067 353.412 606.76C359.695 603.45 367.336 602.807 375.021 605.043C382.852 607.322 389.625 610.21 393.865 614.604C395.97 616.787 397.45 619.341 398.128 622.391C398.807 625.448 398.691 629.05 397.534 633.336C395.216 641.925 389.419 650.65 382.263 656.654C375.091 662.672 366.71 665.838 359.2 663.652Z" stroke="#576289" stroke-width="1.5"/>
<path d="M366.745 620.453V640.816M376.551 630.634H356.939" stroke="white" stroke-width="3" stroke-linecap="round" stroke-linejoin="round"/>
<path d="M236.445 584.836C209.184 585.259 187.113 566.691 186.897 543.601C186.789 532.062 192.15 522.625 200.95 515.996C209.766 509.355 222.044 505.531 235.701 505.319C249.471 505.105 261.927 506.056 270.948 509.938C275.443 511.872 279.054 514.522 281.558 518.09C284.058 521.655 285.492 526.192 285.547 531.968C285.655 543.551 280.178 556.68 271.228 566.974C262.283 577.264 249.955 584.627 236.445 584.836Z" stroke="#576289" stroke-width="1.5"/>
<path d="M234.561 499.663C263.502 496.972 287.734 513.717 289.024 536.709C289.668 548.198 284.431 558.062 275.397 565.419C266.347 572.789 253.493 577.632 239.011 578.978C224.423 580.334 211.161 580.42 201.403 577.288C196.539 575.726 192.584 573.377 189.765 570.021C186.952 566.671 185.227 562.268 184.904 556.516C184.257 544.978 189.451 531.425 198.466 520.401C207.474 509.387 220.217 500.996 234.561 499.663Z" stroke="#576289" stroke-width="1.5"/>
<path d="M235.095 502.463C249.068 502.463 261.69 506.728 270.802 513.59C279.913 520.451 285.48 529.873 285.48 540.218C285.48 550.542 279.936 558.944 270.847 564.798C261.743 570.661 249.11 573.939 235.095 573.939C220.982 573.939 208.211 572.909 198.989 569.279C194.389 567.47 190.717 565.03 188.194 561.791C185.679 558.562 184.265 554.486 184.265 549.316C184.265 538.937 189.976 527.218 199.241 518.073C208.496 508.94 221.21 502.463 235.095 502.463Z" stroke="#576289" stroke-width="1.5"/>
<path d="M238.065 505.654C252.198 507.48 264.621 513.549 273.285 521.852C281.949 530.154 286.827 540.655 285.99 551.393C285.155 562.111 278.857 570.101 269.189 574.98C259.506 579.868 246.462 581.615 232.287 579.784C218.012 577.94 205.179 575.204 196.143 570.238C191.637 567.761 188.117 564.752 185.824 561.061C183.537 557.38 182.433 552.961 182.851 547.595C183.691 536.824 190.421 525.418 200.534 517.15C210.636 508.891 224.021 503.84 238.065 505.654Z" stroke="#576289" stroke-width="1.5"/>
<path d="M237.359 500.224C251.505 501.453 264.073 506.466 272.96 513.537C281.851 520.612 286.994 529.686 286.502 539.077C286.011 548.443 280.043 555.619 270.559 560.175C261.066 564.735 248.124 566.622 233.942 565.39C219.672 564.15 206.798 562.085 197.636 557.954C193.063 555.892 189.467 553.338 187.077 550.165C184.699 547.007 183.474 543.184 183.72 538.494C184.214 529.064 190.522 518.88 200.328 511.34C210.117 503.813 223.293 499.002 237.359 500.224Z" stroke="#576289" stroke-width="1.5"/>
<rect x="187.444" y="505.325" width="95.4187" height="72.2543" rx="36.1271" fill="#424A68"/>
<path d="M242.038 776.853C214.777 777.276 192.706 758.708 192.489 735.618C192.381 724.079 197.743 714.641 206.543 708.012C215.359 701.371 227.636 697.547 241.293 697.335C255.064 697.121 267.52 698.073 276.541 701.955C281.036 703.889 284.647 706.538 287.15 710.107C289.651 713.672 291.085 718.208 291.139 723.985C291.248 735.568 285.771 748.696 276.821 758.991C267.876 769.281 255.548 776.643 242.038 776.853Z" stroke="#576289" stroke-width="1.5"/>
<path d="M240.154 691.679C269.095 688.989 293.327 705.734 294.617 728.726C295.261 740.215 290.024 750.078 280.989 757.436C271.94 764.806 259.086 769.648 244.603 770.995C230.015 772.351 216.753 772.436 206.996 769.304C202.131 767.743 198.177 765.393 195.358 762.037C192.545 758.688 190.819 754.285 190.497 748.533C189.849 736.995 195.044 723.441 204.059 712.418C213.067 701.403 225.81 693.013 240.154 691.679Z" stroke="#576289" stroke-width="1.5"/>
<path d="M240.688 694.479C254.661 694.479 267.283 698.745 276.395 705.606C285.506 712.467 291.073 721.889 291.073 732.234C291.073 742.558 285.529 750.961 276.44 756.814C267.336 762.677 254.703 765.956 240.688 765.956C226.574 765.956 213.804 764.925 204.582 761.296C199.982 759.486 196.31 757.047 193.787 753.808C191.272 750.579 189.857 746.502 189.857 741.332C189.857 730.954 195.568 719.234 204.834 710.09C214.088 700.956 226.803 694.479 240.688 694.479Z" stroke="#576289" stroke-width="1.5"/>
<path d="M243.657 697.671C257.79 699.496 270.214 705.566 278.878 713.869C287.542 722.171 292.42 732.672 291.583 743.41C290.747 754.127 284.45 762.117 274.782 766.997C265.098 771.885 252.055 773.631 237.88 771.8C223.605 769.957 210.772 767.22 201.736 762.254C197.23 759.778 193.71 756.768 191.416 753.077C189.129 749.396 188.026 744.978 188.444 739.611C189.283 728.841 196.014 717.435 206.127 709.167C216.229 700.907 229.614 695.857 243.657 697.671Z" stroke="#576289" stroke-width="1.5"/>
<path d="M242.952 692.241C257.097 693.47 269.666 698.483 278.553 705.554C287.443 712.628 292.587 721.702 292.095 731.093C291.603 740.46 285.636 747.636 276.152 752.192C266.659 756.752 253.717 758.639 239.534 757.406C225.265 756.166 212.391 754.102 203.229 749.971C198.656 747.909 195.06 745.355 192.67 742.181C190.291 739.023 189.067 735.2 189.313 730.51C189.807 721.081 196.114 710.897 205.921 703.356C215.71 695.829 228.886 691.018 242.952 692.241Z" stroke="#576289" stroke-width="1.5"/>
<rect x="193.036" y="697.342" width="95.4187" height="72.2543" rx="36.1271" fill="#424A68"/>
<path d="M229.392 744.24C228.048 744.24 226.752 743.976 225.504 743.448C224.256 742.92 223.152 742.176 222.192 741.216L223.728 739.44C224.64 740.336 225.568 741 226.512 741.432C227.472 741.864 228.472 742.08 229.512 742.08C230.328 742.08 231.04 741.968 231.648 741.744C232.272 741.504 232.752 741.168 233.088 740.736C233.424 740.304 233.592 739.816 233.592 739.272C233.592 738.52 233.328 737.944 232.8 737.544C232.272 737.144 231.4 736.84 230.184 736.632L227.376 736.176C225.84 735.904 224.688 735.408 223.92 734.688C223.168 733.968 222.792 733.008 222.792 731.808C222.792 730.848 223.048 730.008 223.56 729.288C224.072 728.552 224.792 727.984 225.72 727.584C226.664 727.184 227.752 726.984 228.984 726.984C230.2 726.984 231.392 727.184 232.56 727.584C233.744 727.968 234.808 728.528 235.752 729.264L234.36 731.184C232.552 729.808 230.72 729.12 228.864 729.12C228.128 729.12 227.488 729.224 226.944 729.432C226.4 729.64 225.976 729.936 225.672 730.32C225.368 730.688 225.216 731.12 225.216 731.616C225.216 732.304 225.448 732.832 225.912 733.2C226.376 733.552 227.144 733.808 228.216 733.968L230.928 734.424C232.704 734.712 234.008 735.232 234.84 735.984C235.672 736.736 236.088 737.768 236.088 739.08C236.088 740.104 235.808 741.008 235.248 741.792C234.688 742.56 233.904 743.16 232.896 743.592C231.888 744.024 230.72 744.24 229.392 744.24ZM244.225 744.216C243.025 744.216 241.937 743.936 240.961 743.376C240.001 742.816 239.233 742.056 238.657 741.096C238.097 740.136 237.817 739.064 237.817 737.88C237.817 736.712 238.089 735.656 238.633 734.712C239.177 733.752 239.913 732.992 240.841 732.432C241.769 731.856 242.801 731.568 243.937 731.568C245.073 731.568 246.081 731.856 246.961 732.432C247.841 732.992 248.537 733.76 249.049 734.736C249.577 735.696 249.841 736.784 249.841 738V738.672H240.217C240.345 739.344 240.593 739.944 240.961 740.472C241.345 741 241.825 741.416 242.401 741.72C242.993 742.024 243.633 742.176 244.321 742.176C244.913 742.176 245.481 742.088 246.025 741.912C246.585 741.72 247.049 741.448 247.417 741.096L248.953 742.608C248.233 743.152 247.489 743.56 246.721 743.832C245.969 744.088 245.137 744.216 244.225 744.216ZM240.241 736.872H247.465C247.369 736.232 247.145 735.672 246.793 735.192C246.457 734.696 246.033 734.312 245.521 734.04C245.025 733.752 244.481 733.608 243.889 733.608C243.281 733.608 242.721 733.744 242.209 734.016C241.697 734.288 241.265 734.672 240.913 735.168C240.577 735.648 240.353 736.216 240.241 736.872ZM257.007 744.216C255.823 744.216 254.919 743.944 254.295 743.4C253.671 742.84 253.359 742.032 253.359 740.976V733.8H250.767V731.784H253.359V728.664L255.735 728.088V731.784H259.335V733.8H255.735V740.424C255.735 741.048 255.871 741.496 256.143 741.768C256.431 742.024 256.895 742.152 257.535 742.152C257.871 742.152 258.167 742.128 258.423 742.08C258.695 742.032 258.983 741.96 259.287 741.864V743.88C258.967 743.992 258.591 744.072 258.159 744.12C257.743 744.184 257.359 744.216 257.007 744.216Z" fill="white"/>
<path d="M205.704 550V533.2H213.312C214.432 533.2 215.408 533.408 216.24 533.824C217.088 534.24 217.744 534.824 218.208 535.576C218.688 536.312 218.928 537.176 218.928 538.168C218.928 539.272 218.616 540.224 217.992 541.024C217.368 541.824 216.528 542.4 215.472 542.752L219.216 550H216.432L212.952 543.112H208.224V550H205.704ZM208.224 541H213.12C214.112 541 214.904 540.752 215.496 540.256C216.104 539.744 216.408 539.056 216.408 538.192C216.408 537.36 216.104 536.688 215.496 536.176C214.904 535.664 214.112 535.408 213.12 535.408H208.224V541ZM226.366 550.216C225.166 550.216 224.078 549.936 223.102 549.376C222.142 548.816 221.374 548.056 220.798 547.096C220.238 546.136 219.958 545.064 219.958 543.88C219.958 542.712 220.23 541.656 220.774 540.712C221.318 539.752 222.054 538.992 222.982 538.432C223.91 537.856 224.942 537.568 226.078 537.568C227.214 537.568 228.222 537.856 229.102 538.432C229.982 538.992 230.678 539.76 231.19 540.736C231.718 541.696 231.982 542.784 231.982 544V544.672H222.358C222.486 545.344 222.734 545.944 223.102 546.472C223.486 547 223.966 547.416 224.542 547.72C225.134 548.024 225.774 548.176 226.462 548.176C227.054 548.176 227.622 548.088 228.166 547.912C228.726 547.72 229.19 547.448 229.558 547.096L231.094 548.608C230.374 549.152 229.63 549.56 228.862 549.832C228.11 550.088 227.278 550.216 226.366 550.216ZM222.382 542.872H229.606C229.51 542.232 229.286 541.672 228.934 541.192C228.598 540.696 228.174 540.312 227.662 540.04C227.166 539.752 226.622 539.608 226.03 539.608C225.422 539.608 224.862 539.744 224.35 540.016C223.838 540.288 223.406 540.672 223.054 541.168C222.718 541.648 222.494 542.216 222.382 542.872ZM238.585 550.24C237.529 550.24 236.537 550.088 235.609 549.784C234.697 549.464 233.905 549.016 233.233 548.44L234.553 546.856C235.177 547.352 235.817 547.736 236.473 548.008C237.145 548.264 237.825 548.392 238.513 548.392C239.377 548.392 240.081 548.224 240.625 547.888C241.169 547.552 241.441 547.112 241.441 546.568C241.441 546.12 241.281 545.768 240.961 545.512C240.641 545.256 240.145 545.08 239.473 544.984L237.265 544.672C236.049 544.496 235.137 544.12 234.529 543.544C233.921 542.968 233.617 542.2 233.617 541.24C233.617 540.504 233.817 539.864 234.217 539.32C234.617 538.76 235.177 538.328 235.897 538.024C236.617 537.704 237.457 537.544 238.417 537.544C239.297 537.544 240.145 537.672 240.961 537.928C241.777 538.184 242.561 538.584 243.313 539.128L242.089 540.712C241.417 540.264 240.761 539.936 240.121 539.728C239.497 539.52 238.865 539.416 238.225 539.416C237.489 539.416 236.897 539.576 236.449 539.896C236.001 540.2 235.777 540.6 235.777 541.096C235.777 541.544 235.929 541.896 236.233 542.152C236.553 542.392 237.073 542.56 237.793 542.656L240.001 542.968C241.217 543.144 242.137 543.52 242.761 544.096C243.385 544.656 243.697 545.416 243.697 546.376C243.697 547.112 243.473 547.776 243.025 548.368C242.577 548.944 241.969 549.4 241.201 549.736C240.433 550.072 239.561 550.24 238.585 550.24ZM251.514 550.216C250.314 550.216 249.226 549.936 248.25 549.376C247.29 548.816 246.522 548.056 245.946 547.096C245.386 546.136 245.106 545.064 245.106 543.88C245.106 542.712 245.378 541.656 245.922 540.712C246.466 539.752 247.202 538.992 248.13 538.432C249.058 537.856 250.09 537.568 251.226 537.568C252.362 537.568 253.37 537.856 254.25 538.432C255.13 538.992 255.826 539.76 256.338 540.736C256.866 541.696 257.13 542.784 257.13 544V544.672H247.506C247.634 545.344 247.882 545.944 248.25 546.472C248.634 547 249.114 547.416 249.69 547.72C250.282 548.024 250.922 548.176 251.61 548.176C252.202 548.176 252.77 548.088 253.314 547.912C253.874 547.72 254.338 547.448 254.706 547.096L256.242 548.608C255.522 549.152 254.778 549.56 254.01 549.832C253.258 550.088 252.426 550.216 251.514 550.216ZM247.53 542.872H254.754C254.658 542.232 254.434 541.672 254.082 541.192C253.746 540.696 253.322 540.312 252.81 540.04C252.314 539.752 251.77 539.608 251.178 539.608C250.57 539.608 250.01 539.744 249.498 540.016C248.986 540.288 248.554 540.672 248.202 541.168C247.866 541.648 247.642 542.216 247.53 542.872ZM264.296 550.216C263.112 550.216 262.208 549.944 261.584 549.4C260.96 548.84 260.648 548.032 260.648 546.976V539.8H258.056V537.784H260.648V534.664L263.024 534.088V537.784H266.624V539.8H263.024V546.424C263.024 547.048 263.16 547.496 263.432 547.768C263.72 548.024 264.184 548.152 264.824 548.152C265.16 548.152 265.456 548.128 265.712 548.08C265.984 548.032 266.272 547.96 266.576 547.864V549.88C266.256 549.992 265.88 550.072 265.448 550.12C265.032 550.184 264.648 550.216 264.296 550.216Z" fill="white"/>
<rect x="85.1003" y="601.835" width="56.0333" height="58.1799" rx="28.0166" fill="#424A68"/>
<path d="M120.962 632.67H101.35" stroke="white" stroke-width="3" stroke-linecap="round" stroke-linejoin="round"/>
<path d="M109.179 664.339C124.706 666.415 139.214 654.056 141.395 636.474C142.482 627.714 140.176 620.25 135.688 614.717C131.194 609.176 124.464 605.514 116.607 604.463C108.547 603.385 101.285 603.305 95.7943 605.603C93.0736 606.742 90.7896 608.464 89.0468 610.956C87.2993 613.455 86.0612 616.777 85.5173 621.161C84.4264 629.955 86.4679 640.287 90.7755 648.677C95.0961 657.093 101.564 663.32 109.179 664.339Z" stroke="#576289" stroke-width="2"/>
<path d="M95.1392 658.372C82.6259 648.55 80.6234 629.175 90.9006 615.06C96.0234 608.024 102.695 604.371 109.63 603.681C116.576 602.991 123.86 605.268 130.188 610.235C136.671 615.324 141.918 620.551 144.292 626.19C145.469 628.984 145.938 631.874 145.503 634.916C145.067 637.965 143.714 641.232 141.15 644.755C136.006 651.82 127.588 657.712 118.857 660.572C110.105 663.439 101.279 663.191 95.1392 658.372Z" stroke="#576289" stroke-width="2"/>
<path d="M139.571 623.737C143.262 640.286 133.321 656.753 117.449 660.57C109.525 662.476 102.395 660.69 96.7704 656.384C91.1292 652.065 86.9625 645.175 85.1021 636.835C83.2038 628.324 82.3118 620.546 83.837 614.451C84.5934 611.429 85.9387 608.846 88.0362 606.785C90.1351 604.723 93.0438 603.129 97.013 602.174C104.981 600.258 114.739 601.524 122.976 605.383C131.218 609.244 137.758 615.61 139.571 623.737Z" stroke="#576289" stroke-width="2"/>
<path d="M104.732 663.652C89.4973 659.219 80.7471 641.798 85.3829 624.624C87.6948 616.06 92.6665 610.067 98.9432 606.76C105.227 603.45 112.868 602.807 120.553 605.043C128.384 607.322 135.157 610.21 139.396 614.604C141.502 616.787 142.981 619.341 143.659 622.391C144.339 625.448 144.223 629.05 143.066 633.336C140.747 641.925 134.951 650.65 127.795 656.654C120.623 662.672 112.241 665.838 104.732 663.652Z" stroke="#576289" stroke-width="1.5"/>
<path d="M235.776 392.408C228.011 392.408 221.141 390.488 215.168 386.648C209.28 382.723 204.672 377.304 201.344 370.392C198.101 363.395 196.48 355.331 196.48 346.2C196.48 336.984 198.101 328.92 201.344 322.008C204.672 315.096 209.28 309.72 215.168 305.88C221.141 301.955 228.011 299.992 235.776 299.992C243.627 299.992 250.496 301.955 256.384 305.88C262.357 309.72 266.965 315.096 270.208 322.008C273.536 328.92 275.2 336.984 275.2 346.2C275.2 355.331 273.536 363.395 270.208 370.392C266.965 377.304 262.357 382.723 256.384 386.648C250.496 390.488 243.627 392.408 235.776 392.408ZM235.776 377.176C240.384 377.176 244.352 375.939 247.68 373.464C251.008 370.989 253.568 367.405 255.36 362.712C257.237 358.019 258.176 352.515 258.176 346.2C258.176 339.8 257.237 334.296 255.36 329.688C253.568 324.995 251.008 321.411 247.68 318.936C244.352 316.461 240.384 315.224 235.776 315.224C231.253 315.224 227.328 316.461 224 318.936C220.672 321.411 218.069 324.995 216.192 329.688C214.4 334.296 213.504 339.8 213.504 346.2C213.504 352.515 214.4 358.019 216.192 362.712C218.069 367.405 220.672 370.989 224 373.464C227.328 375.939 231.253 377.176 235.776 377.176Z" fill="#424A68"/>
<path d="M46.976 192.22C45.832 192.22 44.7613 192.022 43.764 191.626C42.7667 191.215 41.894 190.651 41.146 189.932C40.4127 189.213 39.8333 188.377 39.408 187.424C38.9973 186.456 38.792 185.415 38.792 184.3C38.792 183.171 38.9973 182.129 39.408 181.176C39.8333 180.208 40.42 179.365 41.168 178.646C41.916 177.927 42.7813 177.37 43.764 176.974C44.7613 176.563 45.832 176.358 46.976 176.358C47.8267 176.358 48.648 176.475 49.44 176.71C50.232 176.945 50.9653 177.275 51.64 177.7C52.3293 178.125 52.916 178.639 53.4 179.24L51.244 181.374C50.6867 180.685 50.0413 180.164 49.308 179.812C48.5893 179.46 47.812 179.284 46.976 179.284C46.2867 179.284 45.6413 179.416 45.04 179.68C44.4387 179.929 43.918 180.281 43.478 180.736C43.038 181.176 42.6933 181.704 42.444 182.32C42.1947 182.921 42.07 183.581 42.07 184.3C42.07 185.004 42.1947 185.664 42.444 186.28C42.6933 186.881 43.0453 187.409 43.5 187.864C43.9547 188.304 44.4827 188.649 45.084 188.898C45.7 189.147 46.3673 189.272 47.086 189.272C47.8927 189.272 48.648 189.103 49.352 188.766C50.056 188.429 50.6793 187.945 51.222 187.314L53.312 189.382C52.828 189.969 52.2487 190.475 51.574 190.9C50.8993 191.325 50.166 191.655 49.374 191.89C48.5967 192.11 47.7973 192.22 46.976 192.22ZM60.2448 192.22C59.1008 192.22 58.0668 191.956 57.1428 191.428C56.2188 190.9 55.4854 190.189 54.9428 189.294C54.4001 188.399 54.1288 187.395 54.1288 186.28C54.1288 185.165 54.3928 184.161 54.9207 183.266C55.4634 182.357 56.1968 181.638 57.1208 181.11C58.0594 180.582 59.1008 180.318 60.2448 180.318C61.3888 180.318 62.4228 180.582 63.3468 181.11C64.2854 181.638 65.0188 182.357 65.5468 183.266C66.0894 184.161 66.3608 185.165 66.3608 186.28C66.3608 187.395 66.0894 188.399 65.5468 189.294C65.0188 190.189 64.2928 190.9 63.3688 191.428C62.4448 191.956 61.4034 192.22 60.2448 192.22ZM60.2448 189.602C60.8461 189.602 61.3814 189.455 61.8508 189.162C62.3348 188.869 62.7161 188.473 62.9948 187.974C63.2881 187.461 63.4348 186.896 63.4348 186.28C63.4348 185.649 63.2881 185.085 62.9948 184.586C62.7161 184.087 62.3348 183.691 61.8508 183.398C61.3814 183.09 60.8461 182.936 60.2448 182.936C59.6581 182.936 59.1228 183.09 58.6388 183.398C58.1548 183.691 57.7734 184.087 57.4948 184.586C57.2161 185.085 57.0768 185.649 57.0768 186.28C57.0768 186.896 57.2161 187.461 57.4948 187.974C57.7734 188.473 58.1548 188.869 58.6388 189.162C59.1228 189.455 59.6581 189.602 60.2448 189.602ZM72.6574 192.22C71.7774 192.22 70.9927 192.029 70.3034 191.648C69.6287 191.252 69.0934 190.709 68.6974 190.02C68.3161 189.331 68.1254 188.539 68.1254 187.644V180.538H71.1394V187.204C71.1394 187.937 71.3521 188.524 71.7774 188.964C72.2174 189.404 72.8041 189.624 73.5374 189.624C74.0361 189.624 74.4834 189.529 74.8794 189.338C75.2901 189.133 75.6274 188.847 75.8914 188.48V180.538H78.9054V192H75.8914V191.076C75.0114 191.839 73.9334 192.22 72.6574 192.22ZM81.2544 192V180.538H84.2684V181.484C85.1337 180.707 86.2044 180.318 87.4804 180.318C88.3751 180.318 89.1597 180.516 89.8344 180.912C90.5237 181.293 91.0591 181.829 91.4404 182.518C91.8217 183.193 92.0124 183.985 92.0124 184.894V192H88.9984V185.334C88.9984 184.586 88.7857 183.999 88.3604 183.574C87.9351 183.134 87.3557 182.914 86.6224 182.914C86.1091 182.914 85.6544 183.017 85.2584 183.222C84.8624 183.413 84.5324 183.691 84.2684 184.058V192H81.2544ZM99.4072 192.176C98.1312 192.176 97.1632 191.89 96.5032 191.318C95.8578 190.731 95.5352 189.881 95.5352 188.766V183.046H93.1812V180.538H95.5352V177.612L98.5492 176.93V180.538H101.827V183.046H98.5492V188.15C98.5492 188.678 98.6665 189.059 98.9012 189.294C99.1358 189.514 99.5465 189.624 100.133 189.624C100.426 189.624 100.69 189.609 100.925 189.58C101.174 189.536 101.446 189.463 101.739 189.36V191.846C101.431 191.949 101.042 192.029 100.573 192.088C100.118 192.147 99.7298 192.176 99.4072 192.176ZM108.778 192.22C107.634 192.22 106.593 191.956 105.654 191.428C104.73 190.9 103.997 190.189 103.454 189.294C102.912 188.399 102.64 187.395 102.64 186.28C102.64 185.165 102.897 184.161 103.41 183.266C103.938 182.371 104.65 181.66 105.544 181.132C106.439 180.604 107.436 180.34 108.536 180.34C109.636 180.34 110.612 180.611 111.462 181.154C112.313 181.697 112.98 182.43 113.464 183.354C113.963 184.278 114.212 185.327 114.212 186.5V187.292H105.72C105.852 187.747 106.065 188.157 106.358 188.524C106.666 188.891 107.04 189.177 107.48 189.382C107.935 189.587 108.419 189.69 108.932 189.69C109.446 189.69 109.915 189.609 110.34 189.448C110.78 189.287 111.154 189.059 111.462 188.766L113.442 190.57C112.738 191.142 112.012 191.56 111.264 191.824C110.531 192.088 109.702 192.22 108.778 192.22ZM105.676 185.136H111.242C111.14 184.681 110.949 184.285 110.67 183.948C110.406 183.596 110.084 183.325 109.702 183.134C109.336 182.929 108.925 182.826 108.47 182.826C108.001 182.826 107.576 182.921 107.194 183.112C106.813 183.303 106.49 183.574 106.226 183.926C105.977 184.263 105.794 184.667 105.676 185.136ZM116.059 192V180.538H119.073V181.814C119.44 181.315 119.88 180.934 120.393 180.67C120.906 180.406 121.486 180.274 122.131 180.274C122.688 180.289 123.106 180.377 123.385 180.538V183.178C123.165 183.075 122.923 183.002 122.659 182.958C122.395 182.899 122.124 182.87 121.845 182.87C121.258 182.87 120.723 183.017 120.239 183.31C119.755 183.603 119.366 184.021 119.073 184.564V192H116.059Z" fill="#21212F"/>
<rect x="50.5" y="258.5" width="372" height="437" rx="48.5" fill="url(#paint0_linear_14_52)" stroke="#141B34" stroke-width="3"/>
<path d="M87.886 317.22C86.6393 317.22 85.422 316.993 84.234 316.538C83.046 316.069 81.99 315.409 81.066 314.558L82.892 312.27C83.7867 313.062 84.6447 313.634 85.466 313.986C86.302 314.338 87.182 314.514 88.106 314.514C88.7513 314.514 89.3087 314.441 89.778 314.294C90.2473 314.133 90.6067 313.905 90.856 313.612C91.12 313.319 91.252 312.974 91.252 312.578C91.252 312.05 91.0613 311.647 90.68 311.368C90.2987 311.075 89.646 310.847 88.722 310.686L85.664 310.158C84.3587 309.938 83.3613 309.476 82.672 308.772C81.9973 308.068 81.66 307.159 81.66 306.044C81.66 305.091 81.902 304.262 82.386 303.558C82.8847 302.854 83.5813 302.319 84.476 301.952C85.3853 301.571 86.4633 301.38 87.71 301.38C88.8393 301.38 89.9613 301.571 91.076 301.952C92.2053 302.333 93.2027 302.861 94.068 303.536L92.352 305.912C90.7387 304.68 89.118 304.064 87.49 304.064C86.918 304.064 86.4193 304.137 85.994 304.284C85.5687 304.431 85.2387 304.636 85.004 304.9C84.784 305.149 84.674 305.45 84.674 305.802C84.674 306.271 84.8427 306.638 85.18 306.902C85.5173 307.151 86.082 307.342 86.874 307.474L89.778 307.958C91.318 308.207 92.4693 308.699 93.232 309.432C93.9947 310.151 94.376 311.104 94.376 312.292C94.376 313.289 94.112 314.162 93.584 314.91C93.056 315.643 92.3007 316.215 91.318 316.626C90.35 317.022 89.206 317.22 87.886 317.22ZM101.179 317.176C99.9026 317.176 98.9346 316.89 98.2746 316.318C97.6293 315.731 97.3066 314.881 97.3066 313.766V308.046H94.9526V305.538H97.3066V302.612L100.321 301.93V305.538H103.599V308.046H100.321V313.15C100.321 313.678 100.438 314.059 100.673 314.294C100.907 314.514 101.318 314.624 101.905 314.624C102.198 314.624 102.462 314.609 102.697 314.58C102.946 314.536 103.217 314.463 103.511 314.36V316.846C103.203 316.949 102.814 317.029 102.345 317.088C101.89 317.147 101.501 317.176 101.179 317.176ZM110.528 317.22C109.384 317.22 108.35 316.956 107.426 316.428C106.502 315.9 105.769 315.189 105.226 314.294C104.683 313.399 104.412 312.395 104.412 311.28C104.412 310.165 104.676 309.161 105.204 308.266C105.747 307.357 106.48 306.638 107.404 306.11C108.343 305.582 109.384 305.318 110.528 305.318C111.672 305.318 112.706 305.582 113.63 306.11C114.569 306.638 115.302 307.357 115.83 308.266C116.373 309.161 116.644 310.165 116.644 311.28C116.644 312.395 116.373 313.399 115.83 314.294C115.302 315.189 114.576 315.9 113.652 316.428C112.728 316.956 111.687 317.22 110.528 317.22ZM110.528 314.602C111.129 314.602 111.665 314.455 112.134 314.162C112.618 313.869 112.999 313.473 113.278 312.974C113.571 312.461 113.718 311.896 113.718 311.28C113.718 310.649 113.571 310.085 113.278 309.586C112.999 309.087 112.618 308.691 112.134 308.398C111.665 308.09 111.129 307.936 110.528 307.936C109.941 307.936 109.406 308.09 108.922 308.398C108.438 308.691 108.057 309.087 107.778 309.586C107.499 310.085 107.36 310.649 107.36 311.28C107.36 311.896 107.499 312.461 107.778 312.974C108.057 313.473 108.438 313.869 108.922 314.162C109.406 314.455 109.941 314.602 110.528 314.602ZM118.497 321.488V305.538H121.467V306.484C122.405 305.751 123.491 305.384 124.723 305.384C125.808 305.384 126.791 305.648 127.671 306.176C128.551 306.704 129.247 307.415 129.761 308.31C130.289 309.19 130.553 310.18 130.553 311.28C130.553 312.38 130.289 313.377 129.761 314.272C129.233 315.152 128.521 315.856 127.627 316.384C126.732 316.897 125.735 317.154 124.635 317.154C124.063 317.154 123.513 317.081 122.985 316.934C122.457 316.773 121.965 316.545 121.511 316.252V321.488H118.497ZM124.239 314.602C124.869 314.602 125.434 314.455 125.933 314.162C126.446 313.869 126.849 313.473 127.143 312.974C127.436 312.475 127.583 311.911 127.583 311.28C127.583 310.649 127.436 310.085 127.143 309.586C126.849 309.073 126.446 308.677 125.933 308.398C125.434 308.105 124.869 307.958 124.239 307.958C123.681 307.958 123.168 308.053 122.699 308.244C122.244 308.42 121.848 308.691 121.511 309.058V313.524C121.833 313.861 122.229 314.125 122.699 314.316C123.183 314.507 123.696 314.602 124.239 314.602ZM134.339 317L131.193 305.538H134.053L135.945 312.93L138.233 305.538H140.763L143.029 312.952L144.921 305.538H147.737L144.569 317H141.687L139.465 309.674L137.243 317H134.339ZM152.613 317.198C151.792 317.198 151.066 317.051 150.435 316.758C149.805 316.45 149.313 316.032 148.961 315.504C148.609 314.976 148.433 314.367 148.433 313.678C148.433 312.578 148.844 311.727 149.665 311.126C150.501 310.51 151.645 310.202 153.097 310.202C154.095 310.202 155.033 310.356 155.913 310.664V309.828C155.913 309.168 155.708 308.669 155.297 308.332C154.887 307.995 154.285 307.826 153.493 307.826C153.009 307.826 152.489 307.907 151.931 308.068C151.374 308.215 150.729 308.449 149.995 308.772L148.895 306.55C149.805 306.139 150.67 305.831 151.491 305.626C152.327 305.421 153.163 305.318 153.999 305.318C155.539 305.318 156.735 305.692 157.585 306.44C158.451 307.173 158.883 308.215 158.883 309.564V317H155.913V316.186C155.444 316.538 154.938 316.795 154.395 316.956C153.853 317.117 153.259 317.198 152.613 317.198ZM151.293 313.612C151.293 314.052 151.484 314.404 151.865 314.668C152.247 314.917 152.753 315.042 153.383 315.042C153.882 315.042 154.344 314.983 154.769 314.866C155.195 314.734 155.576 314.543 155.913 314.294V312.622C155.547 312.475 155.165 312.365 154.769 312.292C154.373 312.219 153.948 312.182 153.493 312.182C152.804 312.182 152.261 312.314 151.865 312.578C151.484 312.827 151.293 313.172 151.293 313.612ZM166.276 317.176C165 317.176 164.032 316.89 163.372 316.318C162.727 315.731 162.404 314.881 162.404 313.766V308.046H160.05V305.538H162.404V302.612L165.418 301.93V305.538H168.696V308.046H165.418V313.15C165.418 313.678 165.536 314.059 165.77 314.294C166.005 314.514 166.416 314.624 167.002 314.624C167.296 314.624 167.56 314.609 167.794 314.58C168.044 314.536 168.315 314.463 168.608 314.36V316.846C168.3 316.949 167.912 317.029 167.442 317.088C166.988 317.147 166.599 317.176 166.276 317.176ZM175.516 317.22C174.386 317.22 173.367 316.963 172.458 316.45C171.548 315.922 170.83 315.211 170.302 314.316C169.774 313.407 169.51 312.395 169.51 311.28C169.51 310.151 169.774 309.139 170.302 308.244C170.83 307.349 171.548 306.638 172.458 306.11C173.367 305.582 174.386 305.318 175.516 305.318C176.425 305.318 177.29 305.494 178.112 305.846C178.948 306.198 179.666 306.704 180.268 307.364L178.42 309.322C177.994 308.853 177.547 308.508 177.078 308.288C176.623 308.053 176.124 307.936 175.582 307.936C174.995 307.936 174.467 308.083 173.998 308.376C173.543 308.669 173.176 309.065 172.898 309.564C172.634 310.063 172.502 310.635 172.502 311.28C172.502 311.896 172.634 312.461 172.898 312.974C173.176 313.473 173.558 313.869 174.042 314.162C174.526 314.441 175.061 314.58 175.648 314.58C176.161 314.58 176.638 314.477 177.078 314.272C177.532 314.052 177.965 313.729 178.376 313.304L180.18 315.196C179.593 315.827 178.889 316.325 178.068 316.692C177.246 317.044 176.396 317.22 175.516 317.22ZM181.747 317V301.6L184.761 300.94V306.484C185.626 305.707 186.697 305.318 187.973 305.318C188.867 305.318 189.652 305.516 190.327 305.912C191.016 306.293 191.551 306.829 191.933 307.518C192.314 308.193 192.505 308.985 192.505 309.894V317H189.491V310.334C189.491 309.586 189.278 308.999 188.853 308.574C188.427 308.134 187.848 307.914 187.115 307.914C186.601 307.914 186.147 308.017 185.751 308.222C185.355 308.413 185.025 308.691 184.761 309.058V317H181.747Z" fill="black"/>
<path d="M191.208 465.264C189.752 465.264 188.464 464.904 187.344 464.184C186.24 463.448 185.376 462.432 184.752 461.136C184.144 459.824 183.84 458.312 183.84 456.6C183.84 454.872 184.144 453.36 184.752 452.064C185.376 450.768 186.24 449.76 187.344 449.04C188.464 448.304 189.752 447.936 191.208 447.936C192.68 447.936 193.968 448.304 195.072 449.04C196.192 449.76 197.056 450.768 197.664 452.064C198.288 453.36 198.6 454.872 198.6 456.6C198.6 458.312 198.288 459.824 197.664 461.136C197.056 462.432 196.192 463.448 195.072 464.184C193.968 464.904 192.68 465.264 191.208 465.264ZM191.208 462.408C192.072 462.408 192.816 462.176 193.44 461.712C194.064 461.248 194.544 460.576 194.88 459.696C195.232 458.816 195.408 457.784 195.408 456.6C195.408 455.4 195.232 454.368 194.88 453.504C194.544 452.624 194.064 451.952 193.44 451.488C192.816 451.024 192.072 450.792 191.208 450.792C190.36 450.792 189.624 451.024 189 451.488C188.376 451.952 187.888 452.624 187.536 453.504C187.2 454.368 187.032 455.4 187.032 456.6C187.032 457.784 187.2 458.816 187.536 459.696C187.888 460.576 188.376 461.248 189 461.712C189.624 462.176 190.36 462.408 191.208 462.408ZM207.638 465.264C206.182 465.264 204.894 464.904 203.774 464.184C202.67 463.448 201.806 462.432 201.182 461.136C200.574 459.824 200.27 458.312 200.27 456.6C200.27 454.872 200.574 453.36 201.182 452.064C201.806 450.768 202.67 449.76 203.774 449.04C204.894 448.304 206.182 447.936 207.638 447.936C209.11 447.936 210.398 448.304 211.502 449.04C212.622 449.76 213.486 450.768 214.094 452.064C214.718 453.36 215.03 454.872 215.03 456.6C215.03 458.312 214.718 459.824 214.094 461.136C213.486 462.432 212.622 463.448 211.502 464.184C210.398 464.904 209.11 465.264 207.638 465.264ZM207.638 462.408C208.502 462.408 209.246 462.176 209.87 461.712C210.494 461.248 210.974 460.576 211.31 459.696C211.662 458.816 211.838 457.784 211.838 456.6C211.838 455.4 211.662 454.368 211.31 453.504C210.974 452.624 210.494 451.952 209.87 451.488C209.246 451.024 208.502 450.792 207.638 450.792C206.79 450.792 206.054 451.024 205.43 451.488C204.806 451.952 204.318 452.624 203.966 453.504C203.63 454.368 203.462 455.4 203.462 456.6C203.462 457.784 203.63 458.816 203.966 459.696C204.318 460.576 204.806 461.248 205.43 461.712C206.054 462.176 206.79 462.408 207.638 462.408ZM218.859 465.24C218.331 465.24 217.875 465.048 217.491 464.664C217.107 464.28 216.915 463.824 216.915 463.296C216.915 462.752 217.107 462.288 217.491 461.904C217.875 461.52 218.331 461.328 218.859 461.328C219.387 461.328 219.843 461.52 220.227 461.904C220.611 462.288 220.803 462.752 220.803 463.296C220.803 463.824 220.611 464.28 220.227 464.664C219.843 465.048 219.387 465.24 218.859 465.24ZM218.859 456.168C218.331 456.168 217.875 455.976 217.491 455.592C217.107 455.208 216.915 454.752 216.915 454.224C216.915 453.68 217.107 453.216 217.491 452.832C217.875 452.448 218.331 452.256 218.859 452.256C219.387 452.256 219.843 452.448 220.227 452.832C220.611 453.216 220.803 453.68 220.803 454.224C220.803 454.752 220.611 455.208 220.227 455.592C219.843 455.976 219.387 456.168 218.859 456.168ZM229.035 465.264C227.739 465.264 226.531 465.04 225.411 464.592C224.307 464.128 223.379 463.48 222.627 462.648L224.739 460.68C225.379 461.352 226.011 461.824 226.635 462.096C227.275 462.368 228.059 462.504 228.987 462.504C229.659 462.504 230.243 462.408 230.739 462.216C231.251 462.008 231.643 461.72 231.915 461.352C232.203 460.984 232.347 460.56 232.347 460.08C232.347 459.632 232.235 459.248 232.011 458.928C231.787 458.608 231.483 458.36 231.099 458.184C230.715 457.992 230.259 457.896 229.731 457.896H227.619V455.304H229.443C230.195 455.304 230.787 455.112 231.219 454.728C231.651 454.328 231.867 453.784 231.867 453.096C231.867 452.648 231.739 452.248 231.483 451.896C231.227 451.528 230.875 451.24 230.427 451.032C229.995 450.824 229.499 450.72 228.939 450.72C228.107 450.72 227.387 450.864 226.779 451.152C226.187 451.44 225.563 451.952 224.907 452.688L222.771 450.72C223.555 449.84 224.491 449.16 225.579 448.68C226.683 448.184 227.843 447.936 229.059 447.936C230.227 447.936 231.259 448.144 232.155 448.56C233.051 448.96 233.755 449.52 234.267 450.24C234.779 450.96 235.035 451.784 235.035 452.712C235.035 453.608 234.739 454.408 234.147 455.112C233.555 455.8 232.787 456.28 231.843 456.552C232.963 456.776 233.851 457.224 234.507 457.896C235.179 458.568 235.515 459.376 235.515 460.32C235.515 461.264 235.235 462.112 234.675 462.864C234.115 463.616 233.347 464.208 232.371 464.64C231.411 465.056 230.299 465.264 229.035 465.264ZM237.778 465V462.744L244.786 455.64C245.122 455.288 245.386 454.96 245.578 454.656C245.786 454.352 245.93 454.056 246.01 453.768C246.106 453.464 246.154 453.16 246.154 452.856C246.154 452.232 245.89 451.712 245.362 451.296C244.85 450.88 244.194 450.672 243.394 450.672C242.626 450.672 241.914 450.832 241.258 451.152C240.602 451.456 239.882 451.984 239.098 452.736L237.322 450.576C238.266 449.696 239.25 449.04 240.274 448.608C241.298 448.16 242.37 447.936 243.49 447.936C244.626 447.936 245.626 448.136 246.49 448.536C247.354 448.936 248.026 449.488 248.506 450.192C248.986 450.896 249.226 451.72 249.226 452.664C249.226 453.208 249.146 453.72 248.986 454.2C248.842 454.68 248.602 455.168 248.266 455.664C247.93 456.144 247.482 456.664 246.922 457.224L241.834 462.336L249.49 462.312V465H237.778ZM253.359 465.24C252.831 465.24 252.375 465.048 251.991 464.664C251.607 464.28 251.415 463.824 251.415 463.296C251.415 462.752 251.607 462.288 251.991 461.904C252.375 461.52 252.831 461.328 253.359 461.328C253.887 461.328 254.343 461.52 254.727 461.904C255.111 462.288 255.303 462.752 255.303 463.296C255.303 463.824 255.111 464.28 254.727 464.664C254.343 465.048 253.887 465.24 253.359 465.24ZM253.359 456.168C252.831 456.168 252.375 455.976 251.991 455.592C251.607 455.208 251.415 454.752 251.415 454.224C251.415 453.68 251.607 453.216 251.991 452.832C252.375 452.448 252.831 452.256 253.359 452.256C253.887 452.256 254.343 452.448 254.727 452.832C255.111 453.216 255.303 453.68 255.303 454.224C255.303 454.752 255.111 455.208 254.727 455.592C254.343 455.976 253.887 456.168 253.359 456.168ZM264.567 465.264C263.111 465.264 261.823 464.904 260.703 464.184C259.599 463.448 258.735 462.432 258.111 461.136C257.503 459.824 257.199 458.312 257.199 456.6C257.199 454.872 257.503 453.36 258.111 452.064C258.735 450.768 259.599 449.76 260.703 449.04C261.823 448.304 263.111 447.936 264.567 447.936C266.039 447.936 267.327 448.304 268.431 449.04C269.551 449.76 270.415 450.768 271.023 452.064C271.647 453.36 271.959 454.872 271.959 456.6C271.959 458.312 271.647 459.824 271.023 461.136C270.415 462.432 269.551 463.448 268.431 464.184C267.327 464.904 266.039 465.264 264.567 465.264ZM264.567 462.408C265.431 462.408 266.175 462.176 266.799 461.712C267.423 461.248 267.903 460.576 268.239 459.696C268.591 458.816 268.767 457.784 268.767 456.6C268.767 455.4 268.591 454.368 268.239 453.504C267.903 452.624 267.423 451.952 266.799 451.488C266.175 451.024 265.431 450.792 264.567 450.792C263.719 450.792 262.983 451.024 262.359 451.488C261.735 451.952 261.247 452.624 260.895 453.504C260.559 454.368 260.391 455.4 260.391 456.6C260.391 457.784 260.559 458.816 260.895 459.696C261.247 460.576 261.735 461.248 262.359 461.712C262.983 462.176 263.719 462.408 264.567 462.408ZM280.997 465.264C279.541 465.264 278.253 464.904 277.133 464.184C276.029 463.448 275.165 462.432 274.541 461.136C273.933 459.824 273.629 458.312 273.629 456.6C273.629 454.872 273.933 453.36 274.541 452.064C275.165 450.768 276.029 449.76 277.133 449.04C278.253 448.304 279.541 447.936 280.997 447.936C282.469 447.936 283.757 448.304 284.861 449.04C285.981 449.76 286.845 450.768 287.453 452.064C288.077 453.36 288.389 454.872 288.389 456.6C288.389 458.312 288.077 459.824 287.453 461.136C286.845 462.432 285.981 463.448 284.861 464.184C283.757 464.904 282.469 465.264 280.997 465.264ZM280.997 462.408C281.861 462.408 282.605 462.176 283.229 461.712C283.853 461.248 284.333 460.576 284.669 459.696C285.021 458.816 285.197 457.784 285.197 456.6C285.197 455.4 285.021 454.368 284.669 453.504C284.333 452.624 283.853 451.952 283.229 451.488C282.605 451.024 281.861 450.792 280.997 450.792C280.149 450.792 279.413 451.024 278.789 451.488C278.165 451.952 277.677 452.624 277.325 453.504C276.989 454.368 276.821 455.4 276.821 456.6C276.821 457.784 276.989 458.816 277.325 459.696C277.677 460.576 278.165 461.248 278.789 461.712C279.413 462.176 280.149 462.408 280.997 462.408Z" fill="#141B34"/>
<rect x="156" y="379" width="160" height="154" rx="77" stroke="url(#paint1_linear_14_52)" stroke-width="20"/>
<rect x="125" y="569" width="70" height="70" rx="35" fill="#ECE8FA"/>
<path d="M148.333 597.333C148.333 595.448 148.333 594.505 148.919 593.919C149.505 593.333 150.448 593.333 152.333 593.333C154.219 593.333 155.162 593.333 155.748 593.919C156.333 594.505 156.333 595.448 156.333 597.333V610.667C156.333 612.552 156.333 613.495 155.748 614.081C155.162 614.667 154.219 614.667 152.333 614.667C150.448 614.667 149.505 614.667 148.919 614.081C148.333 613.495 148.333 612.552 148.333 610.667V597.333Z" fill="#CFC2FF" stroke="#CFC2FF" stroke-width="2"/>
<path d="M161.667 597.333C161.667 595.448 161.667 594.505 162.252 593.919C162.838 593.333 163.781 593.333 165.667 593.333C167.552 593.333 168.495 593.333 169.081 593.919C169.667 594.505 169.667 595.448 169.667 597.333V610.667C169.667 612.552 169.667 613.495 169.081 614.081C168.495 614.667 167.552 614.667 165.667 614.667C163.781 614.667 162.838 614.667 162.252 614.081C161.667 613.495 161.667 612.552 161.667 610.667V597.333Z" fill="#CFC2FF" stroke="#CFC2FF" stroke-width="2"/>
<rect x="282" y="569" width="70" height="70" rx="35" fill="#ECE8FA"/>
<path d="M305.333 604C305.333 599.628 305.333 597.442 306.418 595.892C306.82 595.319 307.319 594.82 307.892 594.418C309.442 593.333 311.628 593.333 316 593.333C320.372 593.333 322.558 593.333 324.108 594.418C324.681 594.82 325.18 595.319 325.582 595.892C326.667 597.442 326.667 599.628 326.667 604C326.667 608.372 326.667 610.558 325.582 612.108C325.18 612.681 324.681 613.18 324.108 613.582C322.558 614.667 320.372 614.667 316 614.667C311.628 614.667 309.442 614.667 307.892 613.582C307.319 613.18 306.82 612.681 306.418 612.108C305.333 610.558 305.333 608.372 305.333 604Z" fill="#CFC2FF" stroke="#CFC2FF" stroke-width="2"/>
<rect x="84" y="417" width="311" height="109" rx="19" fill="#B4C3F9" stroke="#141B34" stroke-width="2"/>
<path d="M111.72 474.22C110.547 474.22 109.52 473.92 108.64 473.32C107.76 472.707 107.067 471.86 106.56 470.78C106.067 469.687 105.82 468.427 105.82 467C105.82 465.573 106.067 464.32 106.56 463.24C107.067 462.147 107.76 461.3 108.64 460.7C109.52 460.087 110.547 459.78 111.72 459.78C112.88 459.78 113.9 460.087 114.78 460.7C115.66 461.3 116.347 462.147 116.84 463.24C117.347 464.32 117.6 465.573 117.6 467C117.6 468.427 117.347 469.687 116.84 470.78C116.347 471.86 115.66 472.707 114.78 473.32C113.9 473.92 112.88 474.22 111.72 474.22ZM111.72 472.48C112.52 472.48 113.213 472.26 113.8 471.82C114.387 471.367 114.84 470.727 115.16 469.9C115.48 469.073 115.64 468.107 115.64 467C115.64 465.88 115.48 464.913 115.16 464.1C114.84 463.273 114.387 462.64 113.8 462.2C113.213 461.747 112.52 461.52 111.72 461.52C110.92 461.52 110.227 461.747 109.64 462.2C109.053 462.64 108.593 463.273 108.26 464.1C107.94 464.913 107.78 465.88 107.78 467C107.78 468.107 107.94 469.073 108.26 469.9C108.593 470.727 109.053 471.367 109.64 471.82C110.227 472.26 110.92 472.48 111.72 472.48ZM119.912 474L126.592 461.7H118.432V460H128.672V461.46L122.152 474H119.912ZM131.68 474.14C131.333 474.14 131.033 474.02 130.78 473.78C130.54 473.527 130.42 473.227 130.42 472.88C130.42 472.533 130.54 472.24 130.78 472C131.033 471.747 131.333 471.62 131.68 471.62C132.026 471.62 132.32 471.747 132.56 472C132.813 472.24 132.94 472.533 132.94 472.88C132.94 473.227 132.813 473.527 132.56 473.78C132.32 474.02 132.026 474.14 131.68 474.14ZM131.68 466.14C131.333 466.14 131.033 466.02 130.78 465.78C130.54 465.527 130.42 465.227 130.42 464.88C130.42 464.533 130.54 464.24 130.78 464C131.033 463.747 131.333 463.62 131.68 463.62C132.026 463.62 132.32 463.747 132.56 464C132.813 464.24 132.94 464.533 132.94 464.88C132.94 465.227 132.813 465.527 132.56 465.78C132.32 466.02 132.026 466.14 131.68 466.14ZM140.9 474.22C139.726 474.22 138.7 473.92 137.82 473.32C136.94 472.707 136.246 471.86 135.74 470.78C135.246 469.687 135 468.427 135 467C135 465.573 135.246 464.32 135.74 463.24C136.246 462.147 136.94 461.3 137.82 460.7C138.7 460.087 139.726 459.78 140.9 459.78C142.06 459.78 143.08 460.087 143.96 460.7C144.84 461.3 145.526 462.147 146.02 463.24C146.526 464.32 146.78 465.573 146.78 467C146.78 468.427 146.526 469.687 146.02 470.78C145.526 471.86 144.84 472.707 143.96 473.32C143.08 473.92 142.06 474.22 140.9 474.22ZM140.9 472.48C141.7 472.48 142.393 472.26 142.98 471.82C143.566 471.367 144.02 470.727 144.34 469.9C144.66 469.073 144.82 468.107 144.82 467C144.82 465.88 144.66 464.913 144.34 464.1C144.02 463.273 143.566 462.64 142.98 462.2C142.393 461.747 141.7 461.52 140.9 461.52C140.1 461.52 139.406 461.747 138.82 462.2C138.233 462.64 137.773 463.273 137.44 464.1C137.12 464.913 136.96 465.88 136.96 467C136.96 468.107 137.12 469.073 137.44 469.9C137.773 470.727 138.233 471.367 138.82 471.82C139.406 472.26 140.1 472.48 140.9 472.48ZM154.318 474.22C153.144 474.22 152.118 473.92 151.238 473.32C150.358 472.707 149.664 471.86 149.158 470.78C148.664 469.687 148.418 468.427 148.418 467C148.418 465.573 148.664 464.32 149.158 463.24C149.664 462.147 150.358 461.3 151.238 460.7C152.118 460.087 153.144 459.78 154.318 459.78C155.478 459.78 156.498 460.087 157.378 460.7C158.258 461.3 158.944 462.147 159.438 463.24C159.944 464.32 160.198 465.573 160.198 467C160.198 468.427 159.944 469.687 159.438 470.78C158.944 471.86 158.258 472.707 157.378 473.32C156.498 473.92 155.478 474.22 154.318 474.22ZM154.318 472.48C155.118 472.48 155.811 472.26 156.398 471.82C156.984 471.367 157.438 470.727 157.758 469.9C158.078 469.073 158.238 468.107 158.238 467C158.238 465.88 158.078 464.913 157.758 464.1C157.438 463.273 156.984 462.64 156.398 462.2C155.811 461.747 155.118 461.52 154.318 461.52C153.518 461.52 152.824 461.747 152.238 462.2C151.651 462.64 151.191 463.273 150.858 464.1C150.538 464.913 150.378 465.88 150.378 467C150.378 468.107 150.538 469.073 150.858 469.9C151.191 470.727 151.651 471.367 152.238 471.82C152.824 472.26 153.518 472.48 154.318 472.48ZM169.595 474.18C168.862 474.18 168.215 474.053 167.655 473.8C167.095 473.533 166.655 473.167 166.335 472.7C166.015 472.233 165.855 471.693 165.855 471.08C165.855 470.12 166.222 469.367 166.955 468.82C167.689 468.26 168.695 467.98 169.975 467.98C170.975 467.98 171.902 468.173 172.755 468.56V467.48C172.755 466.747 172.542 466.2 172.115 465.84C171.702 465.48 171.089 465.3 170.275 465.3C169.809 465.3 169.322 465.373 168.815 465.52C168.309 465.653 167.742 465.867 167.115 466.16L166.375 464.66C167.149 464.3 167.869 464.04 168.535 463.88C169.202 463.707 169.875 463.62 170.555 463.62C171.875 463.62 172.895 463.933 173.615 464.56C174.349 465.187 174.715 466.08 174.715 467.24V474H172.755V473.12C172.302 473.48 171.815 473.747 171.295 473.92C170.775 474.093 170.209 474.18 169.595 474.18ZM167.775 471.04C167.775 471.533 167.982 471.933 168.395 472.24C168.822 472.533 169.375 472.68 170.055 472.68C170.589 472.68 171.075 472.607 171.515 472.46C171.969 472.3 172.382 472.053 172.755 471.72V470C172.369 469.773 171.962 469.613 171.535 469.52C171.122 469.413 170.655 469.36 170.135 469.36C169.402 469.36 168.822 469.513 168.395 469.82C167.982 470.113 167.775 470.52 167.775 471.04ZM177.02 474V463.82H179.02V464.8C179.78 464.013 180.733 463.62 181.88 463.62C182.573 463.62 183.187 463.773 183.72 464.08C184.267 464.387 184.7 464.8 185.02 465.32C185.447 464.76 185.947 464.34 186.52 464.06C187.093 463.767 187.74 463.62 188.46 463.62C189.22 463.62 189.88 463.787 190.44 464.12C191.013 464.453 191.46 464.92 191.78 465.52C192.113 466.12 192.28 466.813 192.28 467.6V474H190.28V467.94C190.28 467.14 190.067 466.513 189.64 466.06C189.227 465.593 188.66 465.36 187.94 465.36C187.447 465.36 187 465.473 186.6 465.7C186.2 465.927 185.853 466.273 185.56 466.74C185.587 466.873 185.607 467.013 185.62 467.16C185.633 467.307 185.64 467.453 185.64 467.6V474H183.66V467.94C183.66 467.14 183.447 466.513 183.02 466.06C182.607 465.593 182.04 465.36 181.32 465.36C180.84 465.36 180.407 465.467 180.02 465.68C179.633 465.88 179.3 466.187 179.02 466.6V474H177.02Z" fill="#141B34"/>
<path d="M107.944 449L105.496 437.8H107.224L108.968 446.36L111.496 437.8H113.096L115.624 446.344L117.384 437.8H119.032L116.584 449H114.856L112.28 440.2L109.688 449H107.944ZM122.333 449.144C121.746 449.144 121.229 449.043 120.781 448.84C120.333 448.627 119.981 448.333 119.725 447.96C119.469 447.587 119.34 447.155 119.34 446.664C119.34 445.896 119.634 445.293 120.221 444.856C120.807 444.408 121.613 444.184 122.637 444.184C123.437 444.184 124.178 444.339 124.861 444.648V443.784C124.861 443.197 124.69 442.76 124.349 442.472C124.018 442.184 123.527 442.04 122.877 442.04C122.503 442.04 122.114 442.099 121.709 442.216C121.303 442.323 120.85 442.493 120.349 442.728L119.757 441.528C120.375 441.24 120.951 441.032 121.485 440.904C122.018 440.765 122.557 440.696 123.101 440.696C124.157 440.696 124.973 440.947 125.549 441.448C126.135 441.949 126.429 442.664 126.429 443.592V449H124.861V448.296C124.498 448.584 124.109 448.797 123.693 448.936C123.277 449.075 122.823 449.144 122.333 449.144ZM120.877 446.632C120.877 447.027 121.042 447.347 121.373 447.592C121.714 447.837 122.157 447.96 122.701 447.96C123.127 447.96 123.517 447.896 123.869 447.768C124.231 447.64 124.562 447.443 124.861 447.176V445.8C124.551 445.619 124.226 445.491 123.885 445.416C123.554 445.331 123.181 445.288 122.765 445.288C122.178 445.288 121.714 445.411 121.373 445.656C121.042 445.891 120.877 446.216 120.877 446.632ZM128.272 449V437.8L129.872 437.496V444.424L133.824 440.856H135.696L131.488 444.664L135.92 449H133.808L129.872 445.176V449H128.272ZM139.848 449.144C139.048 449.144 138.323 448.957 137.672 448.584C137.032 448.211 136.52 447.704 136.136 447.064C135.763 446.424 135.576 445.709 135.576 444.92C135.576 444.141 135.757 443.437 136.12 442.808C136.483 442.168 136.973 441.661 137.592 441.288C138.211 440.904 138.899 440.712 139.656 440.712C140.413 440.712 141.085 440.904 141.672 441.288C142.259 441.661 142.723 442.173 143.064 442.824C143.416 443.464 143.592 444.189 143.592 445V445.448H137.176C137.261 445.896 137.427 446.296 137.672 446.648C137.928 447 138.248 447.277 138.632 447.48C139.027 447.683 139.453 447.784 139.912 447.784C140.307 447.784 140.685 447.725 141.048 447.608C141.421 447.48 141.731 447.299 141.976 447.064L143 448.072C142.52 448.435 142.024 448.707 141.512 448.888C141.011 449.059 140.456 449.144 139.848 449.144ZM137.192 444.248H142.008C141.944 443.821 141.795 443.448 141.56 443.128C141.336 442.797 141.053 442.541 140.712 442.36C140.381 442.168 140.019 442.072 139.624 442.072C139.219 442.072 138.845 442.163 138.504 442.344C138.163 442.525 137.875 442.781 137.64 443.112C137.416 443.432 137.267 443.811 137.192 444.248ZM151.612 449.16C150.982 449.16 150.428 449.027 149.948 448.76C149.468 448.493 149.094 448.12 148.828 447.64C148.561 447.149 148.428 446.589 148.428 445.96V440.856H150.012V445.688C150.012 446.328 150.193 446.835 150.556 447.208C150.929 447.581 151.425 447.768 152.044 447.768C152.481 447.768 152.87 447.677 153.212 447.496C153.553 447.304 153.83 447.037 154.044 446.696V440.856H155.644V449H154.044V448.168C153.414 448.829 152.604 449.16 151.612 449.16ZM157.538 452.264V440.856H159.122V441.64C159.804 441.032 160.636 440.728 161.618 440.728C162.386 440.728 163.079 440.915 163.698 441.288C164.327 441.661 164.823 442.163 165.186 442.792C165.548 443.421 165.73 444.131 165.73 444.92C165.73 445.709 165.543 446.424 165.17 447.064C164.807 447.693 164.311 448.195 163.682 448.568C163.063 448.941 162.364 449.128 161.586 449.128C161.138 449.128 160.706 449.059 160.29 448.92C159.874 448.771 159.49 448.563 159.138 448.296V452.264H157.538ZM161.41 447.736C161.932 447.736 162.396 447.613 162.802 447.368C163.218 447.123 163.548 446.792 163.794 446.376C164.039 445.949 164.162 445.469 164.162 444.936C164.162 444.403 164.039 443.923 163.794 443.496C163.548 443.069 163.218 442.733 162.802 442.488C162.396 442.243 161.932 442.12 161.41 442.12C160.951 442.12 160.524 442.205 160.13 442.376C159.735 442.547 159.404 442.787 159.138 443.096V446.776C159.404 447.075 159.735 447.309 160.13 447.48C160.535 447.651 160.962 447.736 161.41 447.736Z" fill="#576289"/>
<path d="M105.994 504V494.2H113.218V495.488H107.464V498.428H111.244V499.674H107.464V502.712H113.274V504H105.994ZM116.776 504L113.696 496.874H115.236L117.462 502.208L119.688 496.874H121.172L118.12 504H116.776ZM125.252 504.126C124.552 504.126 123.917 503.963 123.348 503.636C122.788 503.309 122.34 502.866 122.004 502.306C121.677 501.746 121.514 501.121 121.514 500.43C121.514 499.749 121.672 499.133 121.99 498.582C122.307 498.022 122.736 497.579 123.278 497.252C123.819 496.916 124.421 496.748 125.084 496.748C125.746 496.748 126.334 496.916 126.848 497.252C127.361 497.579 127.767 498.027 128.066 498.596C128.374 499.156 128.528 499.791 128.528 500.5V500.892H122.914C122.988 501.284 123.133 501.634 123.348 501.942C123.572 502.25 123.852 502.493 124.188 502.67C124.533 502.847 124.906 502.936 125.308 502.936C125.653 502.936 125.984 502.885 126.302 502.782C126.628 502.67 126.899 502.511 127.114 502.306L128.01 503.188C127.59 503.505 127.156 503.743 126.708 503.902C126.269 504.051 125.784 504.126 125.252 504.126ZM122.928 499.842H127.142C127.086 499.469 126.955 499.142 126.75 498.862C126.554 498.573 126.306 498.349 126.008 498.19C125.718 498.022 125.401 497.938 125.056 497.938C124.701 497.938 124.374 498.017 124.076 498.176C123.777 498.335 123.525 498.559 123.32 498.848C123.124 499.128 122.993 499.459 122.928 499.842ZM129.861 504V496.874H131.261V497.784C131.485 497.448 131.76 497.187 132.087 497C132.423 496.804 132.801 496.706 133.221 496.706C133.51 496.715 133.748 496.757 133.935 496.832V498.092C133.804 498.036 133.669 497.999 133.529 497.98C133.389 497.952 133.249 497.938 133.109 497.938C132.698 497.938 132.334 498.05 132.017 498.274C131.7 498.489 131.448 498.806 131.261 499.226V504H129.861ZM135.669 507.01C135.52 507.01 135.38 507.001 135.249 506.982C135.119 506.973 135.011 506.954 134.927 506.926V505.694C135.095 505.731 135.301 505.75 135.543 505.75C136.197 505.75 136.668 505.4 136.957 504.7L137.265 504.014L134.409 496.874H135.963L138.035 502.306L140.331 496.874H141.843L138.399 504.882C138.175 505.386 137.937 505.792 137.685 506.1C137.433 506.417 137.144 506.646 136.817 506.786C136.491 506.935 136.108 507.01 135.669 507.01Z" fill="#576289"/>
<rect x="307.5" y="454.5" width="65" height="32" rx="16" fill="#8093D8" stroke="#141B34"/>
<circle cx="324.5" cy="470.5" r="12.5" fill="#424A68"/>
<rect x="135" width="190" height="118" rx="50" fill="white"/>
<circle cx="190.924" cy="58.9237" r="8.92373" fill="black"/>
<path d="M208.031 53.661C208.8 52.3277 210.725 52.3277 211.495 53.661L217.762 64.5169C218.532 65.8503 217.57 67.5169 216.03 67.5169H203.495C201.955 67.5169 200.993 65.8503 201.763 64.5169L208.031 53.661Z" fill="#B4C3F9"/>
<path d="M232.168 67.24C231.176 67.24 230.296 67.024 229.528 66.592C228.776 66.16 228.184 65.56 227.752 64.792C227.32 64.008 227.104 63.12 227.104 62.128V54.304H230.992V61.6C230.992 62.288 231.2 62.848 231.616 63.28C232.048 63.696 232.608 63.904 233.296 63.904C233.792 63.904 234.232 63.816 234.616 63.64C235 63.464 235.32 63.216 235.576 62.896V54.304H239.464V67H235.576V66.136C234.616 66.872 233.48 67.24 232.168 67.24ZM248.28 67.168C246.76 67.168 245.608 66.832 244.824 66.16C244.056 65.472 243.672 64.464 243.672 63.136V57.544H241.104V54.304H243.672V51.04L247.56 50.2V54.304H251.112V57.544H247.56V62.368C247.56 62.928 247.68 63.328 247.92 63.568C248.176 63.792 248.616 63.904 249.24 63.904C249.56 63.904 249.848 63.888 250.104 63.856C250.376 63.808 250.672 63.736 250.992 63.64V66.784C250.64 66.896 250.192 66.984 249.648 67.048C249.104 67.128 248.648 67.168 248.28 67.168ZM252.63 67V54.304H256.518V67H252.63ZM254.574 53.128C253.982 53.128 253.478 52.92 253.062 52.504C252.646 52.088 252.438 51.584 252.438 50.992C252.438 50.4 252.646 49.896 253.062 49.48C253.478 49.064 253.982 48.856 254.574 48.856C255.166 48.856 255.67 49.064 256.086 49.48C256.502 49.896 256.71 50.4 256.71 50.992C256.71 51.584 256.502 52.088 256.086 52.504C255.67 52.92 255.166 53.128 254.574 53.128ZM258.911 67V50.2L262.799 49.6V67H258.911ZM270.208 67.24C269.008 67.24 267.896 67.104 266.872 66.832C265.848 66.544 264.96 66.128 264.208 65.584L266.056 62.968C266.856 63.448 267.584 63.8 268.24 64.024C268.896 64.232 269.544 64.336 270.184 64.336C270.824 64.336 271.328 64.248 271.696 64.072C272.08 63.88 272.272 63.632 272.272 63.328C272.272 63.088 272.168 62.896 271.96 62.752C271.752 62.592 271.424 62.48 270.976 62.416L268.456 62.032C267.192 61.84 266.224 61.424 265.552 60.784C264.896 60.128 264.568 59.28 264.568 58.24C264.568 57.376 264.784 56.64 265.216 56.032C265.664 55.408 266.296 54.936 267.112 54.616C267.928 54.28 268.904 54.112 270.04 54.112C270.968 54.112 271.888 54.24 272.8 54.496C273.712 54.752 274.56 55.136 275.344 55.648L273.496 58.144C272.808 57.744 272.152 57.456 271.528 57.28C270.904 57.088 270.28 56.992 269.656 56.992C269.16 56.992 268.76 57.08 268.456 57.256C268.152 57.416 268 57.632 268 57.904C268 58.16 268.112 58.368 268.336 58.528C268.56 58.672 268.944 58.784 269.488 58.864L272.008 59.248C273.256 59.424 274.216 59.84 274.888 60.496C275.576 61.136 275.92 61.952 275.92 62.944C275.92 63.776 275.672 64.512 275.176 65.152C274.68 65.792 274 66.304 273.136 66.688C272.288 67.056 271.312 67.24 270.208 67.24Z" fill="black"/>
<defs>
<linearGradient id="paint0_linear_14_52" x1="236.5" y1="257" x2="236.5" y2="697" gradientUnits="userSpaceOnUse">
<stop stop-color="white"/>
<stop offset="0.0001" stop-color="#E1DAFA"/>
</linearGradient>
<linearGradient id="paint1_linear_14_52" x1="236" y1="369" x2="147.915" y2="430.052" gradientUnits="userSpaceOnUse">
<stop stop-color="#CFC2FF"/>
<stop stop-color="#D8CEFF"/>
<stop offset="0.161458" stop-color="#ECE8FA"/>
</linearGradient>
</defs>
</svg>
