<svg width="806" height="716" viewBox="0 0 806 716" fill="none" xmlns="http://www.w3.org/2000/svg">
<rect x="1.5" y="1.5" width="471" height="713" rx="48.5" fill="#CFEEEC" stroke="#141B34" stroke-width="3"/>
<path d="M201 482H279C289.493 482 298 490.507 298 501V517C298 527.493 289.493 536 279 536H201C190.507 536 182 527.493 182 517V501C182 490.507 190.507 482 201 482Z" stroke="#424A68" stroke-width="2"/>
<rect x="339.569" y="471.835" width="56.0333" height="58.1799" rx="28.0166" fill="#424A68"/>
<path d="M363.648 534.339C379.174 536.415 393.683 524.056 395.864 506.474C396.95 497.714 394.644 490.25 390.157 484.717C385.663 479.176 378.932 475.514 371.075 474.463C363.016 473.385 355.753 473.305 350.263 475.603C347.542 476.742 345.258 478.464 343.515 480.956C341.768 483.455 340.53 486.777 339.986 491.161C338.895 499.955 340.936 510.287 345.244 518.677C349.565 527.093 356.032 533.32 363.648 534.339Z" stroke="#576289" stroke-width="2"/>
<path d="M349.608 528.372C337.094 518.55 335.092 499.175 345.369 485.06C350.492 478.024 357.164 474.371 364.098 473.681C371.045 472.991 378.328 475.268 384.656 480.235C391.14 485.324 396.386 490.551 398.761 496.19C399.938 498.984 400.406 501.874 399.972 504.916C399.536 507.965 398.183 511.232 395.618 514.755C390.474 521.82 382.056 527.712 373.326 530.572C364.574 533.439 355.747 533.191 349.608 528.372Z" stroke="#576289" stroke-width="2"/>
<path d="M394.039 493.737C397.73 510.286 387.789 526.753 371.917 530.57C363.994 532.476 356.863 530.69 351.239 526.384C345.598 522.065 341.431 515.175 339.571 506.835C337.672 498.324 336.78 490.546 338.305 484.451C339.062 481.429 340.407 478.846 342.505 476.785C344.604 474.723 347.512 473.129 351.481 472.174C359.45 470.258 369.207 471.524 377.444 475.383C385.687 479.244 392.226 485.61 394.039 493.737Z" stroke="#576289" stroke-width="2"/>
<path d="M359.2 533.652C343.966 529.219 335.216 511.798 339.851 494.625C342.163 486.06 347.135 480.067 353.412 476.76C359.695 473.45 367.336 472.807 375.021 475.043C382.852 477.322 389.625 480.21 393.865 484.604C395.97 486.787 397.45 489.341 398.128 492.391C398.807 495.448 398.691 499.05 397.534 503.336C395.216 511.925 389.419 520.65 382.263 526.654C375.091 532.672 366.71 535.838 359.2 533.652Z" stroke="#576289" stroke-width="1.5"/>
<path d="M366.745 490.453V510.816M376.551 500.634H356.939" stroke="white" stroke-width="3" stroke-linecap="round" stroke-linejoin="round"/>
<path d="M236.445 454.836C209.184 455.259 187.113 436.691 186.897 413.601C186.789 402.062 192.15 392.625 200.95 385.996C209.766 379.355 222.044 375.531 235.701 375.319C249.471 375.105 261.927 376.056 270.948 379.938C275.443 381.872 279.054 384.522 281.558 388.09C284.058 391.655 285.492 396.192 285.547 401.968C285.655 413.551 280.178 426.68 271.228 436.974C262.283 447.264 249.955 454.627 236.445 454.836Z" stroke="#576289" stroke-width="1.5"/>
<path d="M234.561 369.663C263.502 366.972 287.734 383.717 289.024 406.709C289.668 418.198 284.431 428.062 275.397 435.419C266.347 442.789 253.493 447.632 239.011 448.978C224.423 450.334 211.161 450.42 201.403 447.288C196.539 445.726 192.584 443.377 189.765 440.021C186.952 436.671 185.227 432.268 184.904 426.516C184.257 414.978 189.451 401.425 198.466 390.401C207.474 379.387 220.217 370.996 234.561 369.663Z" stroke="#576289" stroke-width="1.5"/>
<path d="M235.095 372.463C249.068 372.463 261.69 376.728 270.802 383.59C279.913 390.451 285.48 399.873 285.48 410.218C285.48 420.542 279.936 428.944 270.847 434.798C261.743 440.661 249.11 443.939 235.095 443.939C220.982 443.939 208.211 442.909 198.989 439.279C194.389 437.47 190.717 435.03 188.194 431.791C185.679 428.562 184.265 424.486 184.265 419.316C184.265 408.937 189.976 397.218 199.241 388.073C208.496 378.94 221.21 372.463 235.095 372.463Z" stroke="#576289" stroke-width="1.5"/>
<path d="M238.065 375.654C252.198 377.48 264.621 383.549 273.285 391.852C281.949 400.154 286.827 410.655 285.99 421.393C285.155 432.111 278.857 440.101 269.189 444.98C259.506 449.868 246.462 451.615 232.287 449.784C218.012 447.94 205.179 445.204 196.143 440.238C191.637 437.761 188.117 434.752 185.824 431.061C183.537 427.38 182.433 422.961 182.851 417.595C183.691 406.824 190.421 395.418 200.534 387.15C210.636 378.891 224.021 373.84 238.065 375.654Z" stroke="#576289" stroke-width="1.5"/>
<path d="M237.359 370.224C251.505 371.453 264.073 376.466 272.96 383.537C281.851 390.612 286.994 399.686 286.502 409.077C286.011 418.443 280.043 425.619 270.559 430.175C261.066 434.735 248.124 436.622 233.942 435.39C219.672 434.15 206.798 432.085 197.636 427.954C193.063 425.892 189.467 423.338 187.077 420.165C184.699 417.007 183.474 413.184 183.72 408.494C184.214 399.064 190.522 388.88 200.328 381.34C210.117 373.813 223.293 369.002 237.359 370.224Z" stroke="#576289" stroke-width="1.5"/>
<rect x="187.444" y="375.325" width="95.4187" height="72.2543" rx="36.1271" fill="#424A68"/>
<path d="M242.038 646.853C214.777 647.276 192.706 628.708 192.489 605.618C192.381 594.079 197.743 584.641 206.543 578.012C215.359 571.371 227.636 567.547 241.293 567.335C255.064 567.121 267.52 568.073 276.541 571.955C281.036 573.889 284.647 576.538 287.15 580.107C289.651 583.672 291.085 588.208 291.139 593.985C291.248 605.568 285.771 618.696 276.821 628.991C267.876 639.281 255.548 646.643 242.038 646.853Z" stroke="#576289" stroke-width="1.5"/>
<path d="M240.154 561.679C269.095 558.989 293.327 575.734 294.617 598.726C295.261 610.215 290.024 620.078 280.989 627.436C271.94 634.806 259.086 639.648 244.603 640.995C230.015 642.351 216.753 642.436 206.996 639.304C202.131 637.743 198.177 635.393 195.358 632.037C192.545 628.688 190.819 624.285 190.497 618.533C189.849 606.995 195.044 593.441 204.059 582.418C213.067 571.403 225.81 563.013 240.154 561.679Z" stroke="#576289" stroke-width="1.5"/>
<path d="M240.688 564.479C254.661 564.479 267.283 568.745 276.395 575.606C285.506 582.467 291.073 591.889 291.073 602.234C291.073 612.558 285.529 620.961 276.44 626.814C267.336 632.677 254.703 635.956 240.688 635.956C226.574 635.956 213.804 634.925 204.582 631.296C199.982 629.486 196.31 627.047 193.787 623.808C191.272 620.579 189.857 616.502 189.857 611.332C189.857 600.954 195.568 589.234 204.834 580.09C214.088 570.956 226.803 564.479 240.688 564.479Z" stroke="#576289" stroke-width="1.5"/>
<path d="M243.657 567.671C257.79 569.496 270.214 575.566 278.878 583.869C287.542 592.171 292.42 602.672 291.583 613.41C290.747 624.127 284.45 632.117 274.782 636.997C265.098 641.885 252.055 643.631 237.88 641.8C223.605 639.957 210.772 637.22 201.736 632.254C197.23 629.778 193.71 626.768 191.416 623.077C189.129 619.396 188.026 614.978 188.444 609.611C189.283 598.841 196.014 587.435 206.127 579.167C216.229 570.907 229.614 565.857 243.657 567.671Z" stroke="#576289" stroke-width="1.5"/>
<path d="M242.952 562.241C257.097 563.47 269.666 568.483 278.553 575.554C287.443 582.628 292.587 591.702 292.095 601.093C291.603 610.46 285.636 617.636 276.152 622.192C266.659 626.752 253.717 628.639 239.534 627.406C225.265 626.166 212.391 624.102 203.229 619.971C198.656 617.909 195.06 615.355 192.67 612.181C190.291 609.023 189.067 605.2 189.313 600.51C189.807 591.081 196.114 580.897 205.921 573.356C215.71 565.829 228.886 561.018 242.952 562.241Z" stroke="#576289" stroke-width="1.5"/>
<rect x="193.036" y="567.342" width="95.4187" height="72.2543" rx="36.1271" fill="#424A68"/>
<path d="M229.392 614.24C228.048 614.24 226.752 613.976 225.504 613.448C224.256 612.92 223.152 612.176 222.192 611.216L223.728 609.44C224.64 610.336 225.568 611 226.512 611.432C227.472 611.864 228.472 612.08 229.512 612.08C230.328 612.08 231.04 611.968 231.648 611.744C232.272 611.504 232.752 611.168 233.088 610.736C233.424 610.304 233.592 609.816 233.592 609.272C233.592 608.52 233.328 607.944 232.8 607.544C232.272 607.144 231.4 606.84 230.184 606.632L227.376 606.176C225.84 605.904 224.688 605.408 223.92 604.688C223.168 603.968 222.792 603.008 222.792 601.808C222.792 600.848 223.048 600.008 223.56 599.288C224.072 598.552 224.792 597.984 225.72 597.584C226.664 597.184 227.752 596.984 228.984 596.984C230.2 596.984 231.392 597.184 232.56 597.584C233.744 597.968 234.808 598.528 235.752 599.264L234.36 601.184C232.552 599.808 230.72 599.12 228.864 599.12C228.128 599.12 227.488 599.224 226.944 599.432C226.4 599.64 225.976 599.936 225.672 600.32C225.368 600.688 225.216 601.12 225.216 601.616C225.216 602.304 225.448 602.832 225.912 603.2C226.376 603.552 227.144 603.808 228.216 603.968L230.928 604.424C232.704 604.712 234.008 605.232 234.84 605.984C235.672 606.736 236.088 607.768 236.088 609.08C236.088 610.104 235.808 611.008 235.248 611.792C234.688 612.56 233.904 613.16 232.896 613.592C231.888 614.024 230.72 614.24 229.392 614.24ZM244.225 614.216C243.025 614.216 241.937 613.936 240.961 613.376C240.001 612.816 239.233 612.056 238.657 611.096C238.097 610.136 237.817 609.064 237.817 607.88C237.817 606.712 238.089 605.656 238.633 604.712C239.177 603.752 239.913 602.992 240.841 602.432C241.769 601.856 242.801 601.568 243.937 601.568C245.073 601.568 246.081 601.856 246.961 602.432C247.841 602.992 248.537 603.76 249.049 604.736C249.577 605.696 249.841 606.784 249.841 608V608.672H240.217C240.345 609.344 240.593 609.944 240.961 610.472C241.345 611 241.825 611.416 242.401 611.72C242.993 612.024 243.633 612.176 244.321 612.176C244.913 612.176 245.481 612.088 246.025 611.912C246.585 611.72 247.049 611.448 247.417 611.096L248.953 612.608C248.233 613.152 247.489 613.56 246.721 613.832C245.969 614.088 245.137 614.216 244.225 614.216ZM240.241 606.872H247.465C247.369 606.232 247.145 605.672 246.793 605.192C246.457 604.696 246.033 604.312 245.521 604.04C245.025 603.752 244.481 603.608 243.889 603.608C243.281 603.608 242.721 603.744 242.209 604.016C241.697 604.288 241.265 604.672 240.913 605.168C240.577 605.648 240.353 606.216 240.241 606.872ZM257.007 614.216C255.823 614.216 254.919 613.944 254.295 613.4C253.671 612.84 253.359 612.032 253.359 610.976V603.8H250.767V601.784H253.359V598.664L255.735 598.088V601.784H259.335V603.8H255.735V610.424C255.735 611.048 255.871 611.496 256.143 611.768C256.431 612.024 256.895 612.152 257.535 612.152C257.871 612.152 258.167 612.128 258.423 612.08C258.695 612.032 258.983 611.96 259.287 611.864V613.88C258.967 613.992 258.591 614.072 258.159 614.12C257.743 614.184 257.359 614.216 257.007 614.216Z" fill="white"/>
<path d="M205.704 420V403.2H213.312C214.432 403.2 215.408 403.408 216.24 403.824C217.088 404.24 217.744 404.824 218.208 405.576C218.688 406.312 218.928 407.176 218.928 408.168C218.928 409.272 218.616 410.224 217.992 411.024C217.368 411.824 216.528 412.4 215.472 412.752L219.216 420H216.432L212.952 413.112H208.224V420H205.704ZM208.224 411H213.12C214.112 411 214.904 410.752 215.496 410.256C216.104 409.744 216.408 409.056 216.408 408.192C216.408 407.36 216.104 406.688 215.496 406.176C214.904 405.664 214.112 405.408 213.12 405.408H208.224V411ZM226.366 420.216C225.166 420.216 224.078 419.936 223.102 419.376C222.142 418.816 221.374 418.056 220.798 417.096C220.238 416.136 219.958 415.064 219.958 413.88C219.958 412.712 220.23 411.656 220.774 410.712C221.318 409.752 222.054 408.992 222.982 408.432C223.91 407.856 224.942 407.568 226.078 407.568C227.214 407.568 228.222 407.856 229.102 408.432C229.982 408.992 230.678 409.76 231.19 410.736C231.718 411.696 231.982 412.784 231.982 414V414.672H222.358C222.486 415.344 222.734 415.944 223.102 416.472C223.486 417 223.966 417.416 224.542 417.72C225.134 418.024 225.774 418.176 226.462 418.176C227.054 418.176 227.622 418.088 228.166 417.912C228.726 417.72 229.19 417.448 229.558 417.096L231.094 418.608C230.374 419.152 229.63 419.56 228.862 419.832C228.11 420.088 227.278 420.216 226.366 420.216ZM222.382 412.872H229.606C229.51 412.232 229.286 411.672 228.934 411.192C228.598 410.696 228.174 410.312 227.662 410.04C227.166 409.752 226.622 409.608 226.03 409.608C225.422 409.608 224.862 409.744 224.35 410.016C223.838 410.288 223.406 410.672 223.054 411.168C222.718 411.648 222.494 412.216 222.382 412.872ZM238.585 420.24C237.529 420.24 236.537 420.088 235.609 419.784C234.697 419.464 233.905 419.016 233.233 418.44L234.553 416.856C235.177 417.352 235.817 417.736 236.473 418.008C237.145 418.264 237.825 418.392 238.513 418.392C239.377 418.392 240.081 418.224 240.625 417.888C241.169 417.552 241.441 417.112 241.441 416.568C241.441 416.12 241.281 415.768 240.961 415.512C240.641 415.256 240.145 415.08 239.473 414.984L237.265 414.672C236.049 414.496 235.137 414.12 234.529 413.544C233.921 412.968 233.617 412.2 233.617 411.24C233.617 410.504 233.817 409.864 234.217 409.32C234.617 408.76 235.177 408.328 235.897 408.024C236.617 407.704 237.457 407.544 238.417 407.544C239.297 407.544 240.145 407.672 240.961 407.928C241.777 408.184 242.561 408.584 243.313 409.128L242.089 410.712C241.417 410.264 240.761 409.936 240.121 409.728C239.497 409.52 238.865 409.416 238.225 409.416C237.489 409.416 236.897 409.576 236.449 409.896C236.001 410.2 235.777 410.6 235.777 411.096C235.777 411.544 235.929 411.896 236.233 412.152C236.553 412.392 237.073 412.56 237.793 412.656L240.001 412.968C241.217 413.144 242.137 413.52 242.761 414.096C243.385 414.656 243.697 415.416 243.697 416.376C243.697 417.112 243.473 417.776 243.025 418.368C242.577 418.944 241.969 419.4 241.201 419.736C240.433 420.072 239.561 420.24 238.585 420.24ZM251.514 420.216C250.314 420.216 249.226 419.936 248.25 419.376C247.29 418.816 246.522 418.056 245.946 417.096C245.386 416.136 245.106 415.064 245.106 413.88C245.106 412.712 245.378 411.656 245.922 410.712C246.466 409.752 247.202 408.992 248.13 408.432C249.058 407.856 250.09 407.568 251.226 407.568C252.362 407.568 253.37 407.856 254.25 408.432C255.13 408.992 255.826 409.76 256.338 410.736C256.866 411.696 257.13 412.784 257.13 414V414.672H247.506C247.634 415.344 247.882 415.944 248.25 416.472C248.634 417 249.114 417.416 249.69 417.72C250.282 418.024 250.922 418.176 251.61 418.176C252.202 418.176 252.77 418.088 253.314 417.912C253.874 417.72 254.338 417.448 254.706 417.096L256.242 418.608C255.522 419.152 254.778 419.56 254.01 419.832C253.258 420.088 252.426 420.216 251.514 420.216ZM247.53 412.872H254.754C254.658 412.232 254.434 411.672 254.082 411.192C253.746 410.696 253.322 410.312 252.81 410.04C252.314 409.752 251.77 409.608 251.178 409.608C250.57 409.608 250.01 409.744 249.498 410.016C248.986 410.288 248.554 410.672 248.202 411.168C247.866 411.648 247.642 412.216 247.53 412.872ZM264.296 420.216C263.112 420.216 262.208 419.944 261.584 419.4C260.96 418.84 260.648 418.032 260.648 416.976V409.8H258.056V407.784H260.648V404.664L263.024 404.088V407.784H266.624V409.8H263.024V416.424C263.024 417.048 263.16 417.496 263.432 417.768C263.72 418.024 264.184 418.152 264.824 418.152C265.16 418.152 265.456 418.128 265.712 418.08C265.984 418.032 266.272 417.96 266.576 417.864V419.88C266.256 419.992 265.88 420.072 265.448 420.12C265.032 420.184 264.648 420.216 264.296 420.216Z" fill="white"/>
<rect x="85.1003" y="471.835" width="56.0333" height="58.1799" rx="28.0166" fill="#424A68"/>
<path d="M120.962 502.67H101.35" stroke="white" stroke-width="3" stroke-linecap="round" stroke-linejoin="round"/>
<path d="M109.179 534.339C124.706 536.415 139.214 524.056 141.395 506.474C142.482 497.714 140.176 490.25 135.688 484.717C131.194 479.176 124.464 475.514 116.607 474.463C108.547 473.385 101.285 473.305 95.7943 475.603C93.0736 476.742 90.7896 478.464 89.0468 480.956C87.2993 483.455 86.0612 486.777 85.5173 491.161C84.4264 499.955 86.4679 510.287 90.7755 518.677C95.0961 527.093 101.564 533.32 109.179 534.339Z" stroke="#576289" stroke-width="2"/>
<path d="M95.1392 528.372C82.6259 518.55 80.6234 499.175 90.9006 485.06C96.0234 478.024 102.695 474.371 109.63 473.681C116.576 472.991 123.86 475.268 130.188 480.235C136.671 485.324 141.918 490.551 144.292 496.19C145.469 498.984 145.938 501.874 145.503 504.916C145.067 507.965 143.714 511.232 141.15 514.755C136.006 521.82 127.588 527.712 118.857 530.572C110.105 533.439 101.279 533.191 95.1392 528.372Z" stroke="#576289" stroke-width="2"/>
<path d="M139.571 493.737C143.262 510.286 133.321 526.753 117.449 530.57C109.525 532.476 102.395 530.69 96.7704 526.384C91.1292 522.065 86.9625 515.175 85.1021 506.835C83.2038 498.324 82.3118 490.546 83.837 484.451C84.5934 481.429 85.9387 478.846 88.0362 476.785C90.1351 474.723 93.0438 473.129 97.013 472.174C104.981 470.258 114.739 471.524 122.976 475.383C131.218 479.244 137.758 485.61 139.571 493.737Z" stroke="#576289" stroke-width="2"/>
<path d="M104.732 533.652C89.4973 529.219 80.7471 511.798 85.3829 494.624C87.6948 486.06 92.6665 480.067 98.9432 476.76C105.227 473.45 112.868 472.807 120.553 475.043C128.384 477.322 135.157 480.21 139.396 484.604C141.502 486.787 142.981 489.341 143.659 492.391C144.339 495.448 144.223 499.05 143.066 503.336C140.747 511.925 134.951 520.65 127.795 526.654C120.623 532.672 112.241 535.838 104.732 533.652Z" stroke="#576289" stroke-width="1.5"/>
<path d="M235.776 262.408C228.011 262.408 221.141 260.488 215.168 256.648C209.28 252.723 204.672 247.304 201.344 240.392C198.101 233.395 196.48 225.331 196.48 216.2C196.48 206.984 198.101 198.92 201.344 192.008C204.672 185.096 209.28 179.72 215.168 175.88C221.141 171.955 228.011 169.992 235.776 169.992C243.627 169.992 250.496 171.955 256.384 175.88C262.357 179.72 266.965 185.096 270.208 192.008C273.536 198.92 275.2 206.984 275.2 216.2C275.2 225.331 273.536 233.395 270.208 240.392C266.965 247.304 262.357 252.723 256.384 256.648C250.496 260.488 243.627 262.408 235.776 262.408ZM235.776 247.176C240.384 247.176 244.352 245.939 247.68 243.464C251.008 240.989 253.568 237.405 255.36 232.712C257.237 228.019 258.176 222.515 258.176 216.2C258.176 209.8 257.237 204.296 255.36 199.688C253.568 194.995 251.008 191.411 247.68 188.936C244.352 186.461 240.384 185.224 235.776 185.224C231.253 185.224 227.328 186.461 224 188.936C220.672 191.411 218.069 194.995 216.192 199.688C214.4 204.296 213.504 209.8 213.504 216.2C213.504 222.515 214.4 228.019 216.192 232.712C218.069 237.405 220.672 240.989 224 243.464C227.328 245.939 231.253 247.176 235.776 247.176Z" fill="#424A68"/>
<path d="M46.976 62.22C45.832 62.22 44.7613 62.022 43.764 61.626C42.7667 61.2153 41.894 60.6507 41.146 59.932C40.4127 59.2133 39.8333 58.3773 39.408 57.424C38.9973 56.456 38.792 55.4147 38.792 54.3C38.792 53.1707 38.9973 52.1293 39.408 51.176C39.8333 50.208 40.42 49.3647 41.168 48.646C41.916 47.9273 42.7813 47.37 43.764 46.974C44.7613 46.5633 45.832 46.358 46.976 46.358C47.8267 46.358 48.648 46.4753 49.44 46.71C50.232 46.9447 50.9653 47.2747 51.64 47.7C52.3293 48.1253 52.916 48.6387 53.4 49.24L51.244 51.374C50.6867 50.6847 50.0413 50.164 49.308 49.812C48.5893 49.46 47.812 49.284 46.976 49.284C46.2867 49.284 45.6413 49.416 45.04 49.68C44.4387 49.9293 43.918 50.2813 43.478 50.736C43.038 51.176 42.6933 51.704 42.444 52.32C42.1947 52.9213 42.07 53.5813 42.07 54.3C42.07 55.004 42.1947 55.664 42.444 56.28C42.6933 56.8813 43.0453 57.4093 43.5 57.864C43.9547 58.304 44.4827 58.6487 45.084 58.898C45.7 59.1473 46.3673 59.272 47.086 59.272C47.8927 59.272 48.648 59.1033 49.352 58.766C50.056 58.4287 50.6793 57.9447 51.222 57.314L53.312 59.382C52.828 59.9687 52.2487 60.4747 51.574 60.9C50.8993 61.3253 50.166 61.6553 49.374 61.89C48.5967 62.11 47.7973 62.22 46.976 62.22ZM60.2448 62.22C59.1008 62.22 58.0668 61.956 57.1428 61.428C56.2188 60.9 55.4854 60.1887 54.9428 59.294C54.4001 58.3993 54.1288 57.3947 54.1288 56.28C54.1288 55.1653 54.3928 54.1607 54.9207 53.266C55.4634 52.3567 56.1968 51.638 57.1208 51.11C58.0594 50.582 59.1008 50.318 60.2448 50.318C61.3888 50.318 62.4228 50.582 63.3468 51.11C64.2854 51.638 65.0188 52.3567 65.5468 53.266C66.0894 54.1607 66.3608 55.1653 66.3608 56.28C66.3608 57.3947 66.0894 58.3993 65.5468 59.294C65.0188 60.1887 64.2928 60.9 63.3688 61.428C62.4448 61.956 61.4034 62.22 60.2448 62.22ZM60.2448 59.602C60.8461 59.602 61.3814 59.4553 61.8508 59.162C62.3348 58.8687 62.7161 58.4727 62.9948 57.974C63.2881 57.4607 63.4348 56.896 63.4348 56.28C63.4348 55.6493 63.2881 55.0847 62.9948 54.586C62.7161 54.0873 62.3348 53.6913 61.8508 53.398C61.3814 53.09 60.8461 52.936 60.2448 52.936C59.6581 52.936 59.1228 53.09 58.6388 53.398C58.1548 53.6913 57.7734 54.0873 57.4948 54.586C57.2161 55.0847 57.0768 55.6493 57.0768 56.28C57.0768 56.896 57.2161 57.4607 57.4948 57.974C57.7734 58.4727 58.1548 58.8687 58.6388 59.162C59.1228 59.4553 59.6581 59.602 60.2448 59.602ZM72.6574 62.22C71.7774 62.22 70.9927 62.0293 70.3034 61.648C69.6287 61.252 69.0934 60.7093 68.6974 60.02C68.3161 59.3307 68.1254 58.5387 68.1254 57.644V50.538H71.1394V57.204C71.1394 57.9373 71.3521 58.524 71.7774 58.964C72.2174 59.404 72.8041 59.624 73.5374 59.624C74.0361 59.624 74.4834 59.5287 74.8794 59.338C75.2901 59.1327 75.6274 58.8467 75.8914 58.48V50.538H78.9054V62H75.8914V61.076C75.0114 61.8387 73.9334 62.22 72.6574 62.22ZM81.2544 62V50.538H84.2684V51.484C85.1337 50.7067 86.2044 50.318 87.4804 50.318C88.3751 50.318 89.1597 50.516 89.8344 50.912C90.5237 51.2933 91.0591 51.8287 91.4404 52.518C91.8217 53.1927 92.0124 53.9847 92.0124 54.894V62H88.9984V55.334C88.9984 54.586 88.7857 53.9993 88.3604 53.574C87.9351 53.134 87.3557 52.914 86.6224 52.914C86.1091 52.914 85.6544 53.0167 85.2584 53.222C84.8624 53.4127 84.5324 53.6913 84.2684 54.058V62H81.2544ZM99.4072 62.176C98.1312 62.176 97.1632 61.89 96.5032 61.318C95.8578 60.7313 95.5352 59.8807 95.5352 58.766V53.046H93.1812V50.538H95.5352V47.612L98.5492 46.93V50.538H101.827V53.046H98.5492V58.15C98.5492 58.678 98.6665 59.0593 98.9012 59.294C99.1358 59.514 99.5465 59.624 100.133 59.624C100.426 59.624 100.69 59.6093 100.925 59.58C101.174 59.536 101.446 59.4627 101.739 59.36V61.846C101.431 61.9487 101.042 62.0293 100.573 62.088C100.118 62.1467 99.7298 62.176 99.4072 62.176ZM108.778 62.22C107.634 62.22 106.593 61.956 105.654 61.428C104.73 60.9 103.997 60.1887 103.454 59.294C102.912 58.3993 102.64 57.3947 102.64 56.28C102.64 55.1653 102.897 54.1607 103.41 53.266C103.938 52.3713 104.65 51.66 105.544 51.132C106.439 50.604 107.436 50.34 108.536 50.34C109.636 50.34 110.612 50.6113 111.462 51.154C112.313 51.6967 112.98 52.43 113.464 53.354C113.963 54.278 114.212 55.3267 114.212 56.5V57.292H105.72C105.852 57.7467 106.065 58.1573 106.358 58.524C106.666 58.8907 107.04 59.1767 107.48 59.382C107.935 59.5873 108.419 59.69 108.932 59.69C109.446 59.69 109.915 59.6093 110.34 59.448C110.78 59.2867 111.154 59.0593 111.462 58.766L113.442 60.57C112.738 61.142 112.012 61.56 111.264 61.824C110.531 62.088 109.702 62.22 108.778 62.22ZM105.676 55.136H111.242C111.14 54.6813 110.949 54.2853 110.67 53.948C110.406 53.596 110.084 53.3247 109.702 53.134C109.336 52.9287 108.925 52.826 108.47 52.826C108.001 52.826 107.576 52.9213 107.194 53.112C106.813 53.3027 106.49 53.574 106.226 53.926C105.977 54.2633 105.794 54.6667 105.676 55.136ZM116.059 62V50.538H119.073V51.814C119.44 51.3153 119.88 50.934 120.393 50.67C120.906 50.406 121.486 50.274 122.131 50.274C122.688 50.2887 123.106 50.3767 123.385 50.538V53.178C123.165 53.0753 122.923 53.002 122.659 52.958C122.395 52.8993 122.124 52.87 121.845 52.87C121.258 52.87 120.723 53.0167 120.239 53.31C119.755 53.6033 119.366 54.0213 119.073 54.564V62H116.059Z" fill="#21212F"/>
<rect x="267" width="220" height="147" rx="50" fill="white"/>
<circle cx="336.924" cy="73.9237" r="8.92373" fill="black"/>
<path d="M354.031 68.661C354.8 67.3277 356.725 67.3277 357.495 68.661L363.762 79.5169C364.532 80.8503 363.57 82.5169 362.03 82.5169H349.495C347.955 82.5169 346.993 80.8503 347.763 79.5169L354.031 68.661Z" fill="#B4C3F9"/>
<path d="M378.168 82.24C377.176 82.24 376.296 82.024 375.528 81.592C374.776 81.16 374.184 80.56 373.752 79.792C373.32 79.008 373.104 78.12 373.104 77.128V69.304H376.992V76.6C376.992 77.288 377.2 77.848 377.616 78.28C378.048 78.696 378.608 78.904 379.296 78.904C379.792 78.904 380.232 78.816 380.616 78.64C381 78.464 381.32 78.216 381.576 77.896V69.304H385.464V82H381.576V81.136C380.616 81.872 379.48 82.24 378.168 82.24ZM394.28 82.168C392.76 82.168 391.608 81.832 390.824 81.16C390.056 80.472 389.672 79.464 389.672 78.136V72.544H387.104V69.304H389.672V66.04L393.56 65.2V69.304H397.112V72.544H393.56V77.368C393.56 77.928 393.68 78.328 393.92 78.568C394.176 78.792 394.616 78.904 395.24 78.904C395.56 78.904 395.848 78.888 396.104 78.856C396.376 78.808 396.672 78.736 396.992 78.64V81.784C396.64 81.896 396.192 81.984 395.648 82.048C395.104 82.128 394.648 82.168 394.28 82.168ZM398.63 82V69.304H402.518V82H398.63ZM400.574 68.128C399.982 68.128 399.478 67.92 399.062 67.504C398.646 67.088 398.438 66.584 398.438 65.992C398.438 65.4 398.646 64.896 399.062 64.48C399.478 64.064 399.982 63.856 400.574 63.856C401.166 63.856 401.67 64.064 402.086 64.48C402.502 64.896 402.71 65.4 402.71 65.992C402.71 66.584 402.502 67.088 402.086 67.504C401.67 67.92 401.166 68.128 400.574 68.128ZM404.911 82V65.2L408.799 64.6V82H404.911ZM416.208 82.24C415.008 82.24 413.896 82.104 412.872 81.832C411.848 81.544 410.96 81.128 410.208 80.584L412.056 77.968C412.856 78.448 413.584 78.8 414.24 79.024C414.896 79.232 415.544 79.336 416.184 79.336C416.824 79.336 417.328 79.248 417.696 79.072C418.08 78.88 418.272 78.632 418.272 78.328C418.272 78.088 418.168 77.896 417.96 77.752C417.752 77.592 417.424 77.48 416.976 77.416L414.456 77.032C413.192 76.84 412.224 76.424 411.552 75.784C410.896 75.128 410.568 74.28 410.568 73.24C410.568 72.376 410.784 71.64 411.216 71.032C411.664 70.408 412.296 69.936 413.112 69.616C413.928 69.28 414.904 69.112 416.04 69.112C416.968 69.112 417.888 69.24 418.8 69.496C419.712 69.752 420.56 70.136 421.344 70.648L419.496 73.144C418.808 72.744 418.152 72.456 417.528 72.28C416.904 72.088 416.28 71.992 415.656 71.992C415.16 71.992 414.76 72.08 414.456 72.256C414.152 72.416 414 72.632 414 72.904C414 73.16 414.112 73.368 414.336 73.528C414.56 73.672 414.944 73.784 415.488 73.864L418.008 74.248C419.256 74.424 420.216 74.84 420.888 75.496C421.576 76.136 421.92 76.952 421.92 77.944C421.92 78.776 421.672 79.512 421.176 80.152C420.68 80.792 420 81.304 419.136 81.688C418.288 82.056 417.312 82.24 416.208 82.24Z" fill="black"/>
<rect x="432.5" y="277.5" width="372" height="437" rx="48.5" fill="url(#paint0_linear_14_51)" stroke="#141B34" stroke-width="3"/>
<path d="M469.886 336.22C468.639 336.22 467.422 335.993 466.234 335.538C465.046 335.069 463.99 334.409 463.066 333.558L464.892 331.27C465.787 332.062 466.645 332.634 467.466 332.986C468.302 333.338 469.182 333.514 470.106 333.514C470.751 333.514 471.309 333.441 471.778 333.294C472.247 333.133 472.607 332.905 472.856 332.612C473.12 332.319 473.252 331.974 473.252 331.578C473.252 331.05 473.061 330.647 472.68 330.368C472.299 330.075 471.646 329.847 470.722 329.686L467.664 329.158C466.359 328.938 465.361 328.476 464.672 327.772C463.997 327.068 463.66 326.159 463.66 325.044C463.66 324.091 463.902 323.262 464.386 322.558C464.885 321.854 465.581 321.319 466.476 320.952C467.385 320.571 468.463 320.38 469.71 320.38C470.839 320.38 471.961 320.571 473.076 320.952C474.205 321.333 475.203 321.861 476.068 322.536L474.352 324.912C472.739 323.68 471.118 323.064 469.49 323.064C468.918 323.064 468.419 323.137 467.994 323.284C467.569 323.431 467.239 323.636 467.004 323.9C466.784 324.149 466.674 324.45 466.674 324.802C466.674 325.271 466.843 325.638 467.18 325.902C467.517 326.151 468.082 326.342 468.874 326.474L471.778 326.958C473.318 327.207 474.469 327.699 475.232 328.432C475.995 329.151 476.376 330.104 476.376 331.292C476.376 332.289 476.112 333.162 475.584 333.91C475.056 334.643 474.301 335.215 473.318 335.626C472.35 336.022 471.206 336.22 469.886 336.22ZM483.179 336.176C481.903 336.176 480.935 335.89 480.275 335.318C479.629 334.731 479.307 333.881 479.307 332.766V327.046H476.953V324.538H479.307V321.612L482.321 320.93V324.538H485.599V327.046H482.321V332.15C482.321 332.678 482.438 333.059 482.673 333.294C482.907 333.514 483.318 333.624 483.905 333.624C484.198 333.624 484.462 333.609 484.697 333.58C484.946 333.536 485.217 333.463 485.511 333.36V335.846C485.203 335.949 484.814 336.029 484.345 336.088C483.89 336.147 483.501 336.176 483.179 336.176ZM492.528 336.22C491.384 336.22 490.35 335.956 489.426 335.428C488.502 334.9 487.769 334.189 487.226 333.294C486.683 332.399 486.412 331.395 486.412 330.28C486.412 329.165 486.676 328.161 487.204 327.266C487.747 326.357 488.48 325.638 489.404 325.11C490.343 324.582 491.384 324.318 492.528 324.318C493.672 324.318 494.706 324.582 495.63 325.11C496.569 325.638 497.302 326.357 497.83 327.266C498.373 328.161 498.644 329.165 498.644 330.28C498.644 331.395 498.373 332.399 497.83 333.294C497.302 334.189 496.576 334.9 495.652 335.428C494.728 335.956 493.687 336.22 492.528 336.22ZM492.528 333.602C493.129 333.602 493.665 333.455 494.134 333.162C494.618 332.869 494.999 332.473 495.278 331.974C495.571 331.461 495.718 330.896 495.718 330.28C495.718 329.649 495.571 329.085 495.278 328.586C494.999 328.087 494.618 327.691 494.134 327.398C493.665 327.09 493.129 326.936 492.528 326.936C491.941 326.936 491.406 327.09 490.922 327.398C490.438 327.691 490.057 328.087 489.778 328.586C489.499 329.085 489.36 329.649 489.36 330.28C489.36 330.896 489.499 331.461 489.778 331.974C490.057 332.473 490.438 332.869 490.922 333.162C491.406 333.455 491.941 333.602 492.528 333.602ZM500.497 340.488V324.538H503.467V325.484C504.405 324.751 505.491 324.384 506.723 324.384C507.808 324.384 508.791 324.648 509.671 325.176C510.551 325.704 511.247 326.415 511.761 327.31C512.289 328.19 512.553 329.18 512.553 330.28C512.553 331.38 512.289 332.377 511.761 333.272C511.233 334.152 510.521 334.856 509.627 335.384C508.732 335.897 507.735 336.154 506.635 336.154C506.063 336.154 505.513 336.081 504.985 335.934C504.457 335.773 503.965 335.545 503.511 335.252V340.488H500.497ZM506.239 333.602C506.869 333.602 507.434 333.455 507.933 333.162C508.446 332.869 508.849 332.473 509.143 331.974C509.436 331.475 509.583 330.911 509.583 330.28C509.583 329.649 509.436 329.085 509.143 328.586C508.849 328.073 508.446 327.677 507.933 327.398C507.434 327.105 506.869 326.958 506.239 326.958C505.681 326.958 505.168 327.053 504.699 327.244C504.244 327.42 503.848 327.691 503.511 328.058V332.524C503.833 332.861 504.229 333.125 504.699 333.316C505.183 333.507 505.696 333.602 506.239 333.602ZM516.339 336L513.193 324.538H516.053L517.945 331.93L520.233 324.538H522.763L525.029 331.952L526.921 324.538H529.737L526.569 336H523.687L521.465 328.674L519.243 336H516.339ZM534.613 336.198C533.792 336.198 533.066 336.051 532.435 335.758C531.805 335.45 531.313 335.032 530.961 334.504C530.609 333.976 530.433 333.367 530.433 332.678C530.433 331.578 530.844 330.727 531.665 330.126C532.501 329.51 533.645 329.202 535.097 329.202C536.095 329.202 537.033 329.356 537.913 329.664V328.828C537.913 328.168 537.708 327.669 537.297 327.332C536.887 326.995 536.285 326.826 535.493 326.826C535.009 326.826 534.489 326.907 533.931 327.068C533.374 327.215 532.729 327.449 531.995 327.772L530.895 325.55C531.805 325.139 532.67 324.831 533.491 324.626C534.327 324.421 535.163 324.318 535.999 324.318C537.539 324.318 538.735 324.692 539.585 325.44C540.451 326.173 540.883 327.215 540.883 328.564V336H537.913V335.186C537.444 335.538 536.938 335.795 536.395 335.956C535.853 336.117 535.259 336.198 534.613 336.198ZM533.293 332.612C533.293 333.052 533.484 333.404 533.865 333.668C534.247 333.917 534.753 334.042 535.383 334.042C535.882 334.042 536.344 333.983 536.769 333.866C537.195 333.734 537.576 333.543 537.913 333.294V331.622C537.547 331.475 537.165 331.365 536.769 331.292C536.373 331.219 535.948 331.182 535.493 331.182C534.804 331.182 534.261 331.314 533.865 331.578C533.484 331.827 533.293 332.172 533.293 332.612ZM548.276 336.176C547 336.176 546.032 335.89 545.372 335.318C544.727 334.731 544.404 333.881 544.404 332.766V327.046H542.05V324.538H544.404V321.612L547.418 320.93V324.538H550.696V327.046H547.418V332.15C547.418 332.678 547.536 333.059 547.77 333.294C548.005 333.514 548.416 333.624 549.002 333.624C549.296 333.624 549.56 333.609 549.794 333.58C550.044 333.536 550.315 333.463 550.608 333.36V335.846C550.3 335.949 549.912 336.029 549.442 336.088C548.988 336.147 548.599 336.176 548.276 336.176ZM557.516 336.22C556.386 336.22 555.367 335.963 554.458 335.45C553.548 334.922 552.83 334.211 552.302 333.316C551.774 332.407 551.51 331.395 551.51 330.28C551.51 329.151 551.774 328.139 552.302 327.244C552.83 326.349 553.548 325.638 554.458 325.11C555.367 324.582 556.386 324.318 557.516 324.318C558.425 324.318 559.29 324.494 560.112 324.846C560.948 325.198 561.666 325.704 562.268 326.364L560.42 328.322C559.994 327.853 559.547 327.508 559.078 327.288C558.623 327.053 558.124 326.936 557.582 326.936C556.995 326.936 556.467 327.083 555.998 327.376C555.543 327.669 555.176 328.065 554.898 328.564C554.634 329.063 554.502 329.635 554.502 330.28C554.502 330.896 554.634 331.461 554.898 331.974C555.176 332.473 555.558 332.869 556.042 333.162C556.526 333.441 557.061 333.58 557.648 333.58C558.161 333.58 558.638 333.477 559.078 333.272C559.532 333.052 559.965 332.729 560.376 332.304L562.18 334.196C561.593 334.827 560.889 335.325 560.068 335.692C559.246 336.044 558.396 336.22 557.516 336.22ZM563.747 336V320.6L566.761 319.94V325.484C567.626 324.707 568.697 324.318 569.973 324.318C570.867 324.318 571.652 324.516 572.327 324.912C573.016 325.293 573.551 325.829 573.933 326.518C574.314 327.193 574.505 327.985 574.505 328.894V336H571.491V329.334C571.491 328.586 571.278 327.999 570.853 327.574C570.427 327.134 569.848 326.914 569.115 326.914C568.601 326.914 568.147 327.017 567.751 327.222C567.355 327.413 567.025 327.691 566.761 328.058V336H563.747Z" fill="black"/>
<path d="M573.208 484.264C571.752 484.264 570.464 483.904 569.344 483.184C568.24 482.448 567.376 481.432 566.752 480.136C566.144 478.824 565.84 477.312 565.84 475.6C565.84 473.872 566.144 472.36 566.752 471.064C567.376 469.768 568.24 468.76 569.344 468.04C570.464 467.304 571.752 466.936 573.208 466.936C574.68 466.936 575.968 467.304 577.072 468.04C578.192 468.76 579.056 469.768 579.664 471.064C580.288 472.36 580.6 473.872 580.6 475.6C580.6 477.312 580.288 478.824 579.664 480.136C579.056 481.432 578.192 482.448 577.072 483.184C575.968 483.904 574.68 484.264 573.208 484.264ZM573.208 481.408C574.072 481.408 574.816 481.176 575.44 480.712C576.064 480.248 576.544 479.576 576.88 478.696C577.232 477.816 577.408 476.784 577.408 475.6C577.408 474.4 577.232 473.368 576.88 472.504C576.544 471.624 576.064 470.952 575.44 470.488C574.816 470.024 574.072 469.792 573.208 469.792C572.36 469.792 571.624 470.024 571 470.488C570.376 470.952 569.888 471.624 569.536 472.504C569.2 473.368 569.032 474.4 569.032 475.6C569.032 476.784 569.2 477.816 569.536 478.696C569.888 479.576 570.376 480.248 571 480.712C571.624 481.176 572.36 481.408 573.208 481.408ZM589.638 484.264C588.182 484.264 586.894 483.904 585.774 483.184C584.67 482.448 583.806 481.432 583.182 480.136C582.574 478.824 582.27 477.312 582.27 475.6C582.27 473.872 582.574 472.36 583.182 471.064C583.806 469.768 584.67 468.76 585.774 468.04C586.894 467.304 588.182 466.936 589.638 466.936C591.11 466.936 592.398 467.304 593.502 468.04C594.622 468.76 595.486 469.768 596.094 471.064C596.718 472.36 597.03 473.872 597.03 475.6C597.03 477.312 596.718 478.824 596.094 480.136C595.486 481.432 594.622 482.448 593.502 483.184C592.398 483.904 591.11 484.264 589.638 484.264ZM589.638 481.408C590.502 481.408 591.246 481.176 591.87 480.712C592.494 480.248 592.974 479.576 593.31 478.696C593.662 477.816 593.838 476.784 593.838 475.6C593.838 474.4 593.662 473.368 593.31 472.504C592.974 471.624 592.494 470.952 591.87 470.488C591.246 470.024 590.502 469.792 589.638 469.792C588.79 469.792 588.054 470.024 587.43 470.488C586.806 470.952 586.318 471.624 585.966 472.504C585.63 473.368 585.462 474.4 585.462 475.6C585.462 476.784 585.63 477.816 585.966 478.696C586.318 479.576 586.806 480.248 587.43 480.712C588.054 481.176 588.79 481.408 589.638 481.408ZM600.859 484.24C600.331 484.24 599.875 484.048 599.491 483.664C599.107 483.28 598.915 482.824 598.915 482.296C598.915 481.752 599.107 481.288 599.491 480.904C599.875 480.52 600.331 480.328 600.859 480.328C601.387 480.328 601.843 480.52 602.227 480.904C602.611 481.288 602.803 481.752 602.803 482.296C602.803 482.824 602.611 483.28 602.227 483.664C601.843 484.048 601.387 484.24 600.859 484.24ZM600.859 475.168C600.331 475.168 599.875 474.976 599.491 474.592C599.107 474.208 598.915 473.752 598.915 473.224C598.915 472.68 599.107 472.216 599.491 471.832C599.875 471.448 600.331 471.256 600.859 471.256C601.387 471.256 601.843 471.448 602.227 471.832C602.611 472.216 602.803 472.68 602.803 473.224C602.803 473.752 602.611 474.208 602.227 474.592C601.843 474.976 601.387 475.168 600.859 475.168ZM611.035 484.264C609.739 484.264 608.531 484.04 607.411 483.592C606.307 483.128 605.379 482.48 604.627 481.648L606.739 479.68C607.379 480.352 608.011 480.824 608.635 481.096C609.275 481.368 610.059 481.504 610.987 481.504C611.659 481.504 612.243 481.408 612.739 481.216C613.251 481.008 613.643 480.72 613.915 480.352C614.203 479.984 614.347 479.56 614.347 479.08C614.347 478.632 614.235 478.248 614.011 477.928C613.787 477.608 613.483 477.36 613.099 477.184C612.715 476.992 612.259 476.896 611.731 476.896H609.619V474.304H611.443C612.195 474.304 612.787 474.112 613.219 473.728C613.651 473.328 613.867 472.784 613.867 472.096C613.867 471.648 613.739 471.248 613.483 470.896C613.227 470.528 612.875 470.24 612.427 470.032C611.995 469.824 611.499 469.72 610.939 469.72C610.107 469.72 609.387 469.864 608.779 470.152C608.187 470.44 607.563 470.952 606.907 471.688L604.771 469.72C605.555 468.84 606.491 468.16 607.579 467.68C608.683 467.184 609.843 466.936 611.059 466.936C612.227 466.936 613.259 467.144 614.155 467.56C615.051 467.96 615.755 468.52 616.267 469.24C616.779 469.96 617.035 470.784 617.035 471.712C617.035 472.608 616.739 473.408 616.147 474.112C615.555 474.8 614.787 475.28 613.843 475.552C614.963 475.776 615.851 476.224 616.507 476.896C617.179 477.568 617.515 478.376 617.515 479.32C617.515 480.264 617.235 481.112 616.675 481.864C616.115 482.616 615.347 483.208 614.371 483.64C613.411 484.056 612.299 484.264 611.035 484.264ZM619.778 484V481.744L626.786 474.64C627.122 474.288 627.386 473.96 627.578 473.656C627.786 473.352 627.93 473.056 628.01 472.768C628.106 472.464 628.154 472.16 628.154 471.856C628.154 471.232 627.89 470.712 627.362 470.296C626.85 469.88 626.194 469.672 625.394 469.672C624.626 469.672 623.914 469.832 623.258 470.152C622.602 470.456 621.882 470.984 621.098 471.736L619.322 469.576C620.266 468.696 621.25 468.04 622.274 467.608C623.298 467.16 624.37 466.936 625.49 466.936C626.626 466.936 627.626 467.136 628.49 467.536C629.354 467.936 630.026 468.488 630.506 469.192C630.986 469.896 631.226 470.72 631.226 471.664C631.226 472.208 631.146 472.72 630.986 473.2C630.842 473.68 630.602 474.168 630.266 474.664C629.93 475.144 629.482 475.664 628.922 476.224L623.834 481.336L631.49 481.312V484H619.778ZM635.359 484.24C634.831 484.24 634.375 484.048 633.991 483.664C633.607 483.28 633.415 482.824 633.415 482.296C633.415 481.752 633.607 481.288 633.991 480.904C634.375 480.52 634.831 480.328 635.359 480.328C635.887 480.328 636.343 480.52 636.727 480.904C637.111 481.288 637.303 481.752 637.303 482.296C637.303 482.824 637.111 483.28 636.727 483.664C636.343 484.048 635.887 484.24 635.359 484.24ZM635.359 475.168C634.831 475.168 634.375 474.976 633.991 474.592C633.607 474.208 633.415 473.752 633.415 473.224C633.415 472.68 633.607 472.216 633.991 471.832C634.375 471.448 634.831 471.256 635.359 471.256C635.887 471.256 636.343 471.448 636.727 471.832C637.111 472.216 637.303 472.68 637.303 473.224C637.303 473.752 637.111 474.208 636.727 474.592C636.343 474.976 635.887 475.168 635.359 475.168ZM646.567 484.264C645.111 484.264 643.823 483.904 642.703 483.184C641.599 482.448 640.735 481.432 640.111 480.136C639.503 478.824 639.199 477.312 639.199 475.6C639.199 473.872 639.503 472.36 640.111 471.064C640.735 469.768 641.599 468.76 642.703 468.04C643.823 467.304 645.111 466.936 646.567 466.936C648.039 466.936 649.327 467.304 650.431 468.04C651.551 468.76 652.415 469.768 653.023 471.064C653.647 472.36 653.959 473.872 653.959 475.6C653.959 477.312 653.647 478.824 653.023 480.136C652.415 481.432 651.551 482.448 650.431 483.184C649.327 483.904 648.039 484.264 646.567 484.264ZM646.567 481.408C647.431 481.408 648.175 481.176 648.799 480.712C649.423 480.248 649.903 479.576 650.239 478.696C650.591 477.816 650.767 476.784 650.767 475.6C650.767 474.4 650.591 473.368 650.239 472.504C649.903 471.624 649.423 470.952 648.799 470.488C648.175 470.024 647.431 469.792 646.567 469.792C645.719 469.792 644.983 470.024 644.359 470.488C643.735 470.952 643.247 471.624 642.895 472.504C642.559 473.368 642.391 474.4 642.391 475.6C642.391 476.784 642.559 477.816 642.895 478.696C643.247 479.576 643.735 480.248 644.359 480.712C644.983 481.176 645.719 481.408 646.567 481.408ZM662.997 484.264C661.541 484.264 660.253 483.904 659.133 483.184C658.029 482.448 657.165 481.432 656.541 480.136C655.933 478.824 655.629 477.312 655.629 475.6C655.629 473.872 655.933 472.36 656.541 471.064C657.165 469.768 658.029 468.76 659.133 468.04C660.253 467.304 661.541 466.936 662.997 466.936C664.469 466.936 665.757 467.304 666.861 468.04C667.981 468.76 668.845 469.768 669.453 471.064C670.077 472.36 670.389 473.872 670.389 475.6C670.389 477.312 670.077 478.824 669.453 480.136C668.845 481.432 667.981 482.448 666.861 483.184C665.757 483.904 664.469 484.264 662.997 484.264ZM662.997 481.408C663.861 481.408 664.605 481.176 665.229 480.712C665.853 480.248 666.333 479.576 666.669 478.696C667.021 477.816 667.197 476.784 667.197 475.6C667.197 474.4 667.021 473.368 666.669 472.504C666.333 471.624 665.853 470.952 665.229 470.488C664.605 470.024 663.861 469.792 662.997 469.792C662.149 469.792 661.413 470.024 660.789 470.488C660.165 470.952 659.677 471.624 659.325 472.504C658.989 473.368 658.821 474.4 658.821 475.6C658.821 476.784 658.989 477.816 659.325 478.696C659.677 479.576 660.165 480.248 660.789 480.712C661.413 481.176 662.149 481.408 662.997 481.408Z" fill="#141B34"/>
<rect x="538" y="398" width="160" height="154" rx="77" stroke="url(#paint1_linear_14_51)" stroke-width="20"/>
<rect x="507" y="588" width="70" height="70" rx="35" fill="#ECE8FA"/>
<path d="M530.333 616.333C530.333 614.448 530.333 613.505 530.919 612.919C531.505 612.333 532.448 612.333 534.333 612.333C536.219 612.333 537.162 612.333 537.748 612.919C538.333 613.505 538.333 614.448 538.333 616.333V629.667C538.333 631.552 538.333 632.495 537.748 633.081C537.162 633.667 536.219 633.667 534.333 633.667C532.448 633.667 531.505 633.667 530.919 633.081C530.333 632.495 530.333 631.552 530.333 629.667V616.333Z" fill="#CFC2FF" stroke="#CFC2FF" stroke-width="2"/>
<path d="M543.667 616.333C543.667 614.448 543.667 613.505 544.252 612.919C544.838 612.333 545.781 612.333 547.667 612.333C549.552 612.333 550.495 612.333 551.081 612.919C551.667 613.505 551.667 614.448 551.667 616.333V629.667C551.667 631.552 551.667 632.495 551.081 633.081C550.495 633.667 549.552 633.667 547.667 633.667C545.781 633.667 544.838 633.667 544.252 633.081C543.667 632.495 543.667 631.552 543.667 629.667V616.333Z" fill="#CFC2FF" stroke="#CFC2FF" stroke-width="2"/>
<rect x="664" y="588" width="70" height="70" rx="35" fill="#ECE8FA"/>
<path d="M687.333 623C687.333 618.628 687.333 616.442 688.418 614.892C688.82 614.319 689.319 613.82 689.892 613.418C691.442 612.333 693.628 612.333 698 612.333C702.372 612.333 704.558 612.333 706.108 613.418C706.681 613.82 707.18 614.319 707.582 614.892C708.667 616.442 708.667 618.628 708.667 623C708.667 627.372 708.667 629.558 707.582 631.108C707.18 631.681 706.681 632.18 706.108 632.582C704.558 633.667 702.372 633.667 698 633.667C693.628 633.667 691.442 633.667 689.892 632.582C689.319 632.18 688.82 631.681 688.418 631.108C687.333 629.558 687.333 627.372 687.333 623Z" fill="#CFC2FF" stroke="#CFC2FF" stroke-width="2"/>
<rect x="378" y="152" width="311" height="109" rx="19" fill="#B4C3F9" stroke="#141B34" stroke-width="2"/>
<path d="M405.72 209.22C404.547 209.22 403.52 208.92 402.64 208.32C401.76 207.707 401.067 206.86 400.56 205.78C400.067 204.687 399.82 203.427 399.82 202C399.82 200.573 400.067 199.32 400.56 198.24C401.067 197.147 401.76 196.3 402.64 195.7C403.52 195.087 404.547 194.78 405.72 194.78C406.88 194.78 407.9 195.087 408.78 195.7C409.66 196.3 410.347 197.147 410.84 198.24C411.347 199.32 411.6 200.573 411.6 202C411.6 203.427 411.347 204.687 410.84 205.78C410.347 206.86 409.66 207.707 408.78 208.32C407.9 208.92 406.88 209.22 405.72 209.22ZM405.72 207.48C406.52 207.48 407.213 207.26 407.8 206.82C408.387 206.367 408.84 205.727 409.16 204.9C409.48 204.073 409.64 203.107 409.64 202C409.64 200.88 409.48 199.913 409.16 199.1C408.84 198.273 408.387 197.64 407.8 197.2C407.213 196.747 406.52 196.52 405.72 196.52C404.92 196.52 404.227 196.747 403.64 197.2C403.053 197.64 402.593 198.273 402.26 199.1C401.94 199.913 401.78 200.88 401.78 202C401.78 203.107 401.94 204.073 402.26 204.9C402.593 205.727 403.053 206.367 403.64 206.82C404.227 207.26 404.92 207.48 405.72 207.48ZM413.912 209L420.592 196.7H412.432V195H422.672V196.46L416.152 209H413.912ZM425.68 209.14C425.333 209.14 425.033 209.02 424.78 208.78C424.54 208.527 424.42 208.227 424.42 207.88C424.42 207.533 424.54 207.24 424.78 207C425.033 206.747 425.333 206.62 425.68 206.62C426.026 206.62 426.32 206.747 426.56 207C426.813 207.24 426.94 207.533 426.94 207.88C426.94 208.227 426.813 208.527 426.56 208.78C426.32 209.02 426.026 209.14 425.68 209.14ZM425.68 201.14C425.333 201.14 425.033 201.02 424.78 200.78C424.54 200.527 424.42 200.227 424.42 199.88C424.42 199.533 424.54 199.24 424.78 199C425.033 198.747 425.333 198.62 425.68 198.62C426.026 198.62 426.32 198.747 426.56 199C426.813 199.24 426.94 199.533 426.94 199.88C426.94 200.227 426.813 200.527 426.56 200.78C426.32 201.02 426.026 201.14 425.68 201.14ZM434.9 209.22C433.726 209.22 432.7 208.92 431.82 208.32C430.94 207.707 430.246 206.86 429.74 205.78C429.246 204.687 429 203.427 429 202C429 200.573 429.246 199.32 429.74 198.24C430.246 197.147 430.94 196.3 431.82 195.7C432.7 195.087 433.726 194.78 434.9 194.78C436.06 194.78 437.08 195.087 437.96 195.7C438.84 196.3 439.526 197.147 440.02 198.24C440.526 199.32 440.78 200.573 440.78 202C440.78 203.427 440.526 204.687 440.02 205.78C439.526 206.86 438.84 207.707 437.96 208.32C437.08 208.92 436.06 209.22 434.9 209.22ZM434.9 207.48C435.7 207.48 436.393 207.26 436.98 206.82C437.566 206.367 438.02 205.727 438.34 204.9C438.66 204.073 438.82 203.107 438.82 202C438.82 200.88 438.66 199.913 438.34 199.1C438.02 198.273 437.566 197.64 436.98 197.2C436.393 196.747 435.7 196.52 434.9 196.52C434.1 196.52 433.406 196.747 432.82 197.2C432.233 197.64 431.773 198.273 431.44 199.1C431.12 199.913 430.96 200.88 430.96 202C430.96 203.107 431.12 204.073 431.44 204.9C431.773 205.727 432.233 206.367 432.82 206.82C433.406 207.26 434.1 207.48 434.9 207.48ZM448.318 209.22C447.144 209.22 446.118 208.92 445.238 208.32C444.358 207.707 443.664 206.86 443.158 205.78C442.664 204.687 442.418 203.427 442.418 202C442.418 200.573 442.664 199.32 443.158 198.24C443.664 197.147 444.358 196.3 445.238 195.7C446.118 195.087 447.144 194.78 448.318 194.78C449.478 194.78 450.498 195.087 451.378 195.7C452.258 196.3 452.944 197.147 453.438 198.24C453.944 199.32 454.198 200.573 454.198 202C454.198 203.427 453.944 204.687 453.438 205.78C452.944 206.86 452.258 207.707 451.378 208.32C450.498 208.92 449.478 209.22 448.318 209.22ZM448.318 207.48C449.118 207.48 449.811 207.26 450.398 206.82C450.984 206.367 451.438 205.727 451.758 204.9C452.078 204.073 452.238 203.107 452.238 202C452.238 200.88 452.078 199.913 451.758 199.1C451.438 198.273 450.984 197.64 450.398 197.2C449.811 196.747 449.118 196.52 448.318 196.52C447.518 196.52 446.824 196.747 446.238 197.2C445.651 197.64 445.191 198.273 444.858 199.1C444.538 199.913 444.378 200.88 444.378 202C444.378 203.107 444.538 204.073 444.858 204.9C445.191 205.727 445.651 206.367 446.238 206.82C446.824 207.26 447.518 207.48 448.318 207.48ZM463.595 209.18C462.862 209.18 462.215 209.053 461.655 208.8C461.095 208.533 460.655 208.167 460.335 207.7C460.015 207.233 459.855 206.693 459.855 206.08C459.855 205.12 460.222 204.367 460.955 203.82C461.689 203.26 462.695 202.98 463.975 202.98C464.975 202.98 465.902 203.173 466.755 203.56V202.48C466.755 201.747 466.542 201.2 466.115 200.84C465.702 200.48 465.089 200.3 464.275 200.3C463.809 200.3 463.322 200.373 462.815 200.52C462.309 200.653 461.742 200.867 461.115 201.16L460.375 199.66C461.149 199.3 461.869 199.04 462.535 198.88C463.202 198.707 463.875 198.62 464.555 198.62C465.875 198.62 466.895 198.933 467.615 199.56C468.349 200.187 468.715 201.08 468.715 202.24V209H466.755V208.12C466.302 208.48 465.815 208.747 465.295 208.92C464.775 209.093 464.209 209.18 463.595 209.18ZM461.775 206.04C461.775 206.533 461.982 206.933 462.395 207.24C462.822 207.533 463.375 207.68 464.055 207.68C464.589 207.68 465.075 207.607 465.515 207.46C465.969 207.3 466.382 207.053 466.755 206.72V205C466.369 204.773 465.962 204.613 465.535 204.52C465.122 204.413 464.655 204.36 464.135 204.36C463.402 204.36 462.822 204.513 462.395 204.82C461.982 205.113 461.775 205.52 461.775 206.04ZM471.02 209V198.82H473.02V199.8C473.78 199.013 474.733 198.62 475.88 198.62C476.573 198.62 477.187 198.773 477.72 199.08C478.267 199.387 478.7 199.8 479.02 200.32C479.447 199.76 479.947 199.34 480.52 199.06C481.093 198.767 481.74 198.62 482.46 198.62C483.22 198.62 483.88 198.787 484.44 199.12C485.013 199.453 485.46 199.92 485.78 200.52C486.113 201.12 486.28 201.813 486.28 202.6V209H484.28V202.94C484.28 202.14 484.067 201.513 483.64 201.06C483.227 200.593 482.66 200.36 481.94 200.36C481.447 200.36 481 200.473 480.6 200.7C480.2 200.927 479.853 201.273 479.56 201.74C479.587 201.873 479.607 202.013 479.62 202.16C479.633 202.307 479.64 202.453 479.64 202.6V209H477.66V202.94C477.66 202.14 477.447 201.513 477.02 201.06C476.607 200.593 476.04 200.36 475.32 200.36C474.84 200.36 474.407 200.467 474.02 200.68C473.633 200.88 473.3 201.187 473.02 201.6V209H471.02Z" fill="#141B34"/>
<path d="M401.944 184L399.496 172.8H401.224L402.968 181.36L405.496 172.8H407.096L409.624 181.344L411.384 172.8H413.032L410.584 184H408.856L406.28 175.2L403.688 184H401.944ZM416.333 184.144C415.746 184.144 415.229 184.043 414.781 183.84C414.333 183.627 413.981 183.333 413.725 182.96C413.469 182.587 413.34 182.155 413.34 181.664C413.34 180.896 413.634 180.293 414.221 179.856C414.807 179.408 415.613 179.184 416.637 179.184C417.437 179.184 418.178 179.339 418.861 179.648V178.784C418.861 178.197 418.69 177.76 418.349 177.472C418.018 177.184 417.527 177.04 416.877 177.04C416.503 177.04 416.114 177.099 415.709 177.216C415.303 177.323 414.85 177.493 414.349 177.728L413.757 176.528C414.375 176.24 414.951 176.032 415.485 175.904C416.018 175.765 416.557 175.696 417.101 175.696C418.157 175.696 418.973 175.947 419.549 176.448C420.135 176.949 420.429 177.664 420.429 178.592V184H418.861V183.296C418.498 183.584 418.109 183.797 417.693 183.936C417.277 184.075 416.823 184.144 416.333 184.144ZM414.877 181.632C414.877 182.027 415.042 182.347 415.373 182.592C415.714 182.837 416.157 182.96 416.701 182.96C417.127 182.96 417.517 182.896 417.869 182.768C418.231 182.64 418.562 182.443 418.861 182.176V180.8C418.551 180.619 418.226 180.491 417.885 180.416C417.554 180.331 417.181 180.288 416.765 180.288C416.178 180.288 415.714 180.411 415.373 180.656C415.042 180.891 414.877 181.216 414.877 181.632ZM422.272 184V172.8L423.872 172.496V179.424L427.824 175.856H429.696L425.488 179.664L429.92 184H427.808L423.872 180.176V184H422.272ZM433.848 184.144C433.048 184.144 432.323 183.957 431.672 183.584C431.032 183.211 430.52 182.704 430.136 182.064C429.763 181.424 429.576 180.709 429.576 179.92C429.576 179.141 429.757 178.437 430.12 177.808C430.483 177.168 430.973 176.661 431.592 176.288C432.211 175.904 432.899 175.712 433.656 175.712C434.413 175.712 435.085 175.904 435.672 176.288C436.259 176.661 436.723 177.173 437.064 177.824C437.416 178.464 437.592 179.189 437.592 180V180.448H431.176C431.261 180.896 431.427 181.296 431.672 181.648C431.928 182 432.248 182.277 432.632 182.48C433.027 182.683 433.453 182.784 433.912 182.784C434.307 182.784 434.685 182.725 435.048 182.608C435.421 182.48 435.731 182.299 435.976 182.064L437 183.072C436.52 183.435 436.024 183.707 435.512 183.888C435.011 184.059 434.456 184.144 433.848 184.144ZM431.192 179.248H436.008C435.944 178.821 435.795 178.448 435.56 178.128C435.336 177.797 435.053 177.541 434.712 177.36C434.381 177.168 434.019 177.072 433.624 177.072C433.219 177.072 432.845 177.163 432.504 177.344C432.163 177.525 431.875 177.781 431.64 178.112C431.416 178.432 431.267 178.811 431.192 179.248ZM445.612 184.16C444.982 184.16 444.428 184.027 443.948 183.76C443.468 183.493 443.094 183.12 442.828 182.64C442.561 182.149 442.428 181.589 442.428 180.96V175.856H444.012V180.688C444.012 181.328 444.193 181.835 444.556 182.208C444.929 182.581 445.425 182.768 446.044 182.768C446.481 182.768 446.87 182.677 447.212 182.496C447.553 182.304 447.83 182.037 448.044 181.696V175.856H449.644V184H448.044V183.168C447.414 183.829 446.604 184.16 445.612 184.16ZM451.538 187.264V175.856H453.122V176.64C453.804 176.032 454.636 175.728 455.618 175.728C456.386 175.728 457.079 175.915 457.698 176.288C458.327 176.661 458.823 177.163 459.186 177.792C459.548 178.421 459.73 179.131 459.73 179.92C459.73 180.709 459.543 181.424 459.17 182.064C458.807 182.693 458.311 183.195 457.682 183.568C457.063 183.941 456.364 184.128 455.586 184.128C455.138 184.128 454.706 184.059 454.29 183.92C453.874 183.771 453.49 183.563 453.138 183.296V187.264H451.538ZM455.41 182.736C455.932 182.736 456.396 182.613 456.802 182.368C457.218 182.123 457.548 181.792 457.794 181.376C458.039 180.949 458.162 180.469 458.162 179.936C458.162 179.403 458.039 178.923 457.794 178.496C457.548 178.069 457.218 177.733 456.802 177.488C456.396 177.243 455.932 177.12 455.41 177.12C454.951 177.12 454.524 177.205 454.13 177.376C453.735 177.547 453.404 177.787 453.138 178.096V181.776C453.404 182.075 453.735 182.309 454.13 182.48C454.535 182.651 454.962 182.736 455.41 182.736Z" fill="#576289"/>
<path d="M399.994 239V229.2H407.218V230.488H401.464V233.428H405.244V234.674H401.464V237.712H407.274V239H399.994ZM410.776 239L407.696 231.874H409.236L411.462 237.208L413.688 231.874H415.172L412.12 239H410.776ZM419.252 239.126C418.552 239.126 417.917 238.963 417.348 238.636C416.788 238.309 416.34 237.866 416.004 237.306C415.677 236.746 415.514 236.121 415.514 235.43C415.514 234.749 415.672 234.133 415.99 233.582C416.307 233.022 416.736 232.579 417.278 232.252C417.819 231.916 418.421 231.748 419.084 231.748C419.746 231.748 420.334 231.916 420.848 232.252C421.361 232.579 421.767 233.027 422.066 233.596C422.374 234.156 422.528 234.791 422.528 235.5V235.892H416.914C416.988 236.284 417.133 236.634 417.348 236.942C417.572 237.25 417.852 237.493 418.188 237.67C418.533 237.847 418.906 237.936 419.308 237.936C419.653 237.936 419.984 237.885 420.302 237.782C420.628 237.67 420.899 237.511 421.114 237.306L422.01 238.188C421.59 238.505 421.156 238.743 420.708 238.902C420.269 239.051 419.784 239.126 419.252 239.126ZM416.928 234.842H421.142C421.086 234.469 420.955 234.142 420.75 233.862C420.554 233.573 420.306 233.349 420.008 233.19C419.718 233.022 419.401 232.938 419.056 232.938C418.701 232.938 418.374 233.017 418.076 233.176C417.777 233.335 417.525 233.559 417.32 233.848C417.124 234.128 416.993 234.459 416.928 234.842ZM423.861 239V231.874H425.261V232.784C425.485 232.448 425.76 232.187 426.087 232C426.423 231.804 426.801 231.706 427.221 231.706C427.51 231.715 427.748 231.757 427.935 231.832V233.092C427.804 233.036 427.669 232.999 427.529 232.98C427.389 232.952 427.249 232.938 427.109 232.938C426.698 232.938 426.334 233.05 426.017 233.274C425.7 233.489 425.448 233.806 425.261 234.226V239H423.861ZM429.669 242.01C429.52 242.01 429.38 242.001 429.249 241.982C429.119 241.973 429.011 241.954 428.927 241.926V240.694C429.095 240.731 429.301 240.75 429.543 240.75C430.197 240.75 430.668 240.4 430.957 239.7L431.265 239.014L428.409 231.874H429.963L432.035 237.306L434.331 231.874H435.843L432.399 239.882C432.175 240.386 431.937 240.792 431.685 241.1C431.433 241.417 431.144 241.646 430.817 241.786C430.491 241.935 430.108 242.01 429.669 242.01Z" fill="#576289"/>
<rect x="601.5" y="189.5" width="65" height="32" rx="16" fill="#8093D8" stroke="#141B34"/>
<circle cx="618.5" cy="205.5" r="12.5" fill="#424A68"/>
<defs>
<linearGradient id="paint0_linear_14_51" x1="618.5" y1="276" x2="618.5" y2="716" gradientUnits="userSpaceOnUse">
<stop stop-color="white"/>
<stop offset="0.0001" stop-color="#E1DAFA"/>
</linearGradient>
<linearGradient id="paint1_linear_14_51" x1="618" y1="388" x2="529.915" y2="449.052" gradientUnits="userSpaceOnUse">
<stop stop-color="#CFC2FF"/>
<stop stop-color="#D8CEFF"/>
<stop offset="0.161458" stop-color="#ECE8FA"/>
</linearGradient>
</defs>
</svg>
