<svg width="150" height="30" viewBox="0 0 200 60" fill="none" xmlns="http://www.w3.org/2000/svg">
<path d="M4.73909 31.0768C0.523688 30.2257 0.0294757 27.2724 0.00040396 24.4646C-0.0359357 20.813 2.38427 18.1943 5.34232 16.6667C10.9459 13.7789 16.6149 10.731 22.6109 8.93431C30.94 6.44655 39.5525 4.75892 48.1359 3.275C55.7964 1.94383 63.5658 1.02729 71.3279 0.510828C79.2863 -0.0129108 87.3029 -0.114777 95.2758 0.117996C104.848 0.401687 114.427 1.04909 123.97 1.89289C130.242 2.44573 136.478 3.4932 142.692 4.52613C151.704 6.03188 160.76 7.39215 169.649 9.44346C177.985 11.3638 186.016 14.4263 192.797 19.911C198.292 24.3482 201.184 30.3421 199.542 37.2744C198.633 41.1078 196.009 43.6102 192.681 44.9559C186.612 47.4 180.434 49.7641 174.104 51.3499C159.866 54.9288 145.25 56.1581 130.663 57.5329C109.179 59.5551 87.6517 59.3151 66.1168 59.1041C51.799 58.9659 37.532 57.8748 23.4468 55.2561C19.1587 54.4559 14.6235 53.9176 11.0041 50.9643C10.5244 50.5715 9.89933 50.2151 9.67403 49.6986C9.34697 48.9421 9.04172 47.9674 9.26703 47.2618C9.39785 46.8617 10.677 46.498 11.3166 46.6435C13.9112 47.2327 16.4259 48.2002 19.0351 48.7021C23.7375 49.6113 28.4689 50.397 33.2149 51.0225C39.2836 51.8227 45.3596 52.5574 51.4574 53.0302C56.6394 53.4303 61.8578 53.5248 67.0544 53.5685C76.0739 53.6485 85.1007 53.6703 94.1202 53.5466C102.536 53.4303 110.96 53.2557 119.362 52.8047C125.053 52.4992 130.714 51.6554 136.391 51.088C140.591 50.6661 144.821 50.4697 148.993 49.8659C153.797 49.1749 158.521 47.7419 163.333 47.3855C167.628 47.0654 171.836 46.4034 175.848 45.0941C181.379 43.2901 186.866 41.1951 192.077 38.6274C194.847 37.2598 196.911 32.6698 194.454 28.8945C191.067 23.6862 186.11 20.4711 180.58 18.6816C171.32 15.692 161.879 13.0223 152.329 11.2111C135.736 8.05409 118.926 6.1192 102.035 5.60273C90.7697 5.25357 79.4535 5.37724 68.2027 6.06101C53.6451 6.95573 39.1891 9.08705 25.3146 13.8298C19.7983 15.7138 14.5726 18.4925 9.29608 21.0385C7.98058 21.6713 6.84679 22.8425 5.87289 23.9772C4.73182 25.3084 3.67798 26.7705 4.67368 28.7782C4.9644 29.3674 4.71729 30.2184 4.71729 31.0841L4.73909 31.0768Z" fill="#141b34"/>
</svg>
