<svg width="95" height="32" viewBox="0 0 95 32" fill="none" xmlns="http://www.w3.org/2000/svg">
<circle cx="8.92373" cy="16.9237" r="8.92373" fill="#CFEEEC"/>
<path d="M26.0307 11.661C26.8005 10.3277 28.725 10.3277 29.4948 11.661L35.7624 22.5169C36.5322 23.8503 35.57 25.5169 34.0304 25.5169H21.495C19.9554 25.5169 18.9932 23.8503 19.763 22.5169L26.0307 11.661Z" fill="#B4C3F9"/>
<path d="M50.168 25.24C49.176 25.24 48.296 25.024 47.528 24.592C46.776 24.16 46.184 23.56 45.752 22.792C45.32 22.008 45.104 21.12 45.104 20.128V12.304H48.992V19.6C48.992 20.288 49.2 20.848 49.616 21.28C50.048 21.696 50.608 21.904 51.296 21.904C51.792 21.904 52.232 21.816 52.616 21.64C53 21.464 53.32 21.216 53.576 20.896V12.304H57.464V25H53.576V24.136C52.616 24.872 51.48 25.24 50.168 25.24ZM66.2799 25.168C64.7599 25.168 63.6079 24.832 62.8239 24.16C62.0559 23.472 61.6719 22.464 61.6719 21.136V15.544H59.1039V12.304H61.6719V9.04L65.5599 8.2V12.304H69.1119V15.544H65.5599V20.368C65.5599 20.928 65.6799 21.328 65.9199 21.568C66.1759 21.792 66.6159 21.904 67.2399 21.904C67.5599 21.904 67.8479 21.888 68.1039 21.856C68.3759 21.808 68.6719 21.736 68.9919 21.64V24.784C68.6399 24.896 68.1919 24.984 67.6479 25.048C67.1039 25.128 66.6479 25.168 66.2799 25.168ZM70.6297 25V12.304H74.5177V25H70.6297ZM72.5737 11.128C71.9817 11.128 71.4777 10.92 71.0617 10.504C70.6457 10.088 70.4377 9.584 70.4377 8.992C70.4377 8.4 70.6457 7.896 71.0617 7.48C71.4777 7.064 71.9817 6.856 72.5737 6.856C73.1657 6.856 73.6697 7.064 74.0857 7.48C74.5017 7.896 74.7097 8.4 74.7097 8.992C74.7097 9.584 74.5017 10.088 74.0857 10.504C73.6697 10.92 73.1657 11.128 72.5737 11.128ZM76.9109 25V8.2L80.7989 7.6V25H76.9109ZM88.2082 25.24C87.0082 25.24 85.8962 25.104 84.8722 24.832C83.8482 24.544 82.9602 24.128 82.2082 23.584L84.0562 20.968C84.8562 21.448 85.5842 21.8 86.2402 22.024C86.8962 22.232 87.5442 22.336 88.1842 22.336C88.8242 22.336 89.3282 22.248 89.6962 22.072C90.0802 21.88 90.2722 21.632 90.2722 21.328C90.2722 21.088 90.1682 20.896 89.9602 20.752C89.7522 20.592 89.4242 20.48 88.9762 20.416L86.4562 20.032C85.1922 19.84 84.2242 19.424 83.5522 18.784C82.8962 18.128 82.5682 17.28 82.5682 16.24C82.5682 15.376 82.7842 14.64 83.2162 14.032C83.6642 13.408 84.2962 12.936 85.1122 12.616C85.9282 12.28 86.9042 12.112 88.0402 12.112C88.9682 12.112 89.8882 12.24 90.8002 12.496C91.7122 12.752 92.5602 13.136 93.3442 13.648L91.4962 16.144C90.8082 15.744 90.1522 15.456 89.5282 15.28C88.9042 15.088 88.2802 14.992 87.6562 14.992C87.1602 14.992 86.7602 15.08 86.4562 15.256C86.1522 15.416 86.0002 15.632 86.0002 15.904C86.0002 16.16 86.1122 16.368 86.3362 16.528C86.5602 16.672 86.9442 16.784 87.4882 16.864L90.0082 17.248C91.2562 17.424 92.2162 17.84 92.8882 18.496C93.5762 19.136 93.9202 19.952 93.9202 20.944C93.9202 21.776 93.6722 22.512 93.1762 23.152C92.6802 23.792 92.0002 24.304 91.1362 24.688C90.2882 25.056 89.3122 25.24 88.2082 25.24Z" fill="#CFC2FF"/>
</svg>
