<svg width="65" height="66" viewBox="0 0 65 66" fill="none"
    xmlns="http://www.w3.org/2000/svg">
    <rect x="3.1003" y="1.83513" width="56.0333" height="58.1799" rx="28.0166" fill="#424A68"/>
    <path d="M38.9616 32.6705H19.35" stroke="white" stroke-width="3" stroke-linecap="round" stroke-linejoin="round"/>
    <path d="M27.1793 64.3388C42.706 66.4153 57.2141 54.0559 59.3951 36.4744C60.4817 27.7144 58.1759 20.2499 53.6883 14.717C49.1944 9.17627 42.4639 5.51352 34.6068 4.46276C26.5472 3.38491 19.2846 3.30514 13.7943 5.60307C11.0736 6.74182 8.78956 8.46436 7.04676 10.9561C5.29928 13.4545 4.06121 16.7765 3.51726 21.1615C2.42644 29.955 4.46792 40.2873 8.77545 48.6774C13.0961 57.093 19.5638 63.3203 27.1793 64.3388Z" stroke="#576289" stroke-width="2"/>
    <path d="M13.1392 58.3721C0.625941 48.5499 -1.37663 29.1751 8.90062 15.0598C14.0235 8.02382 20.695 4.37083 27.6297 3.68134C34.5764 2.99067 41.8598 5.26775 48.1876 10.2347C54.6714 15.3242 59.9178 20.5509 62.2923 26.1896C63.4691 28.984 63.9378 31.8741 63.503 34.9161C63.0673 37.9653 61.7142 41.2322 59.1496 44.7547C54.0055 51.8197 45.5878 57.7117 36.8575 60.5717C28.1051 63.439 19.2788 63.1914 13.1392 58.3721Z" stroke="#576289" stroke-width="2"/>
    <path d="M57.5706 23.737C61.2619 40.2862 51.3206 56.7535 35.4485 60.5703C27.5255 62.4755 20.3949 60.6901 14.7704 56.3842C9.1292 52.0655 4.96247 45.1755 3.10212 36.835C1.20382 28.3245 0.311754 20.5456 1.83702 14.4511C2.59343 11.4288 3.9387 8.84608 6.03621 6.78545C8.13513 4.72345 11.0438 3.12873 15.013 2.17428C22.9814 0.258123 32.7388 1.52405 40.9758 5.38291C49.2182 9.24424 55.7578 15.6099 57.5706 23.737Z" stroke="#576289" stroke-width="2"/>
    <path d="M22.7316 63.6524C7.49733 59.219 -1.25291 41.7978 3.38286 24.6245C5.69483 16.0598 10.6665 10.0668 16.9432 6.76032C23.2266 3.45026 30.8679 2.80672 38.5527 5.04315C46.3839 7.32219 53.1566 10.2098 57.3961 14.6042C59.5019 16.7869 60.9814 19.3406 61.6593 22.3915C62.3385 25.4483 62.2229 29.0499 61.0659 33.3359C58.7473 41.9253 52.9508 50.6496 45.7946 56.6542C38.6227 62.672 30.2414 65.8379 22.7316 63.6524Z" stroke="#576289" stroke-width="1.5"/>
</svg>
