<svg width="66" height="66" viewBox="0 0 66 66" fill="none"
    xmlns="http://www.w3.org/2000/svg">
    <rect x="3.5688" y="1.83514" width="56.0333" height="58.1799" rx="28.0166" fill="#424A68"/>
    <path d="M27.6478 64.3388C43.1744 66.4153 57.6826 54.0559 59.8635 36.4744C60.9502 27.7144 58.6444 20.2499 54.1568 14.717C49.6629 9.17628 42.9324 5.51353 35.0753 4.46276C27.0157 3.38491 19.7531 3.30515 14.2628 5.60308C11.5421 6.74183 9.25805 8.46437 7.51526 10.9561C5.76777 13.4546 4.52971 16.7765 3.98576 21.1615C2.89494 29.955 4.93641 40.2873 9.24394 48.6774C13.5646 57.093 20.0323 63.3204 27.6478 64.3388Z" stroke="#576289" stroke-width="2"/>
    <path d="M13.6076 58.3721C1.09441 48.5499 -0.908148 29.1751 9.3691 15.0598C14.4919 8.02381 21.1635 4.37081 28.0982 3.68133C35.0449 2.99065 42.3283 5.26773 48.656 10.2347C55.1399 15.3241 60.3863 20.5509 62.7608 26.1896C63.9376 28.9839 64.4062 31.8741 63.9715 34.916C63.5358 37.9653 62.1827 41.2322 59.618 44.7547C54.474 51.8197 46.0562 57.7117 37.3259 60.5717C28.5735 63.439 19.7473 63.1913 13.6076 58.3721Z" stroke="#576289" stroke-width="2"/>
    <path d="M58.0391 23.737C61.7304 40.2862 51.7891 56.7535 35.917 60.5703C27.9939 62.4755 20.8634 60.6901 15.2389 56.3842C9.59767 52.0655 5.43095 45.1755 3.57059 36.835C1.6723 28.3245 0.780228 20.5456 2.3055 14.4511C3.06191 11.4288 4.40717 8.84609 6.50469 6.78546C8.6036 4.72346 11.5123 3.12874 15.4814 2.17428C23.4498 0.25813 33.2072 1.52406 41.4443 5.38291C49.6867 9.24424 56.2263 15.61 58.0391 23.737Z" stroke="#576289" stroke-width="2"/>
    <path d="M23.2001 63.6525C7.96583 59.219 -0.784408 41.7978 3.85137 24.6245C6.16334 16.0598 11.135 10.0668 17.4117 6.76035C23.6951 3.4503 31.3364 2.80675 39.0212 5.04318C46.8524 7.32222 53.6251 10.2098 57.8646 14.6042C59.9704 16.787 61.4499 19.3406 62.1278 22.3915C62.807 25.4483 62.6914 29.0499 61.5344 33.336C59.2158 41.9254 53.4193 50.6496 46.2631 56.6542C39.0911 62.6721 30.7099 65.838 23.2001 63.6525Z" stroke="#576289" stroke-width="1.5"/>
    <path d="M30.7449 20.4527V40.8157M40.5508 30.6342H20.9391" stroke="white" stroke-width="3" stroke-linecap="round" stroke-linejoin="round"/>
</svg>
